<svg xmlns="http://www.w3.org/2000/svg" viewBox="0 0 512 512">
  <defs>
    <linearGradient id="goldGradient" x1="0%" y1="100%" x2="100%" y2="0%">
      <stop offset="0%" stop-color="#8B6723" />
      <stop offset="25%" stop-color="#DAB549" />
      <stop offset="50%" stop-color="#6A4C1A" />
      <stop offset="75%" stop-color="#DAB549" />
      <stop offset="100%" stop-color="#FEFBD8" />
    </linearGradient>
  </defs>
  <g transform="scale(0.474) translate(0,0)">
    <path fill="url(#goldGradient)" opacity="1.0" d="M352.139 711.15c11.686-36.521 23.361-72.628 34.785-108.815 3.432-10.872 10.286-16.774 21.62-18.543 60.036-9.37 120.018-19.094 180.058-28.437 11.07-1.722 21.878-.241 31.725 5.96 8.03 5.056 16.3 9.732 24.45 14.597 11.546 6.89 24.112 9.713 37.474 10.028 6.893.163 13.753 1.416 20.648 1.875 3.346.223 6.737-.249 11.15-.454-1.598-3.026-2.451-4.963-3.578-6.726-15.635-24.456-37.163-41.292-64.579-51.024-21.79-7.735-43.37-16.089-64.891-24.553-35.457-13.944-71.247-27.175-106.059-42.597-39.107-17.325-75.584-39.393-107.625-68.198-17.456-15.692-32.261-33.624-45.71-52.77-18.24-25.97-37.58-51.135-62.252-71.33-13.6-11.132-28.793-20.321-43.282-30.365-1.444-1-2.993-1.85-4.493-2.77l.456-1.41c1.539.384 3.144.6 4.606 1.176 45.824 18.064 91.818 35.714 137.405 54.359 77.952 31.88 155.878 63.846 233.355 96.856 39.793 16.954 78.67 36.074 117.806 54.544 19.468 9.187 32.477 24.452 39.593 44.81 19.226 55.006 49.577 103.054 90.924 144.064 9.327 9.251 19.456 17.705 29.38 26.339 6.313 5.493 7.075 11.29 1.757 17.63-27.725 33.064-55.478 66.104-83.183 99.184-5.08 6.066-9.11 8.239-17.918 3.276-39.561-22.288-81.99-36.614-126.829-43.53-23.982-3.7-48.192-5.393-72.466-4.105-97.05 5.149-179.943 42.504-249.43 110.143-2.08 2.024-4.125 4.082-6.187 6.124l-1.613-.904a457847 457847 0 0 0 42.903-134.435"/>
  </g>
</svg>
