<?xml version="1.0" encoding="utf-8"?>
<!-- Generator: Adobe Illustrator 25.4.1, SVG Export Plug-In . SVG Version: 6.00 Build 0)  -->
<svg version="1.1" id="Layer_1" xmlns="http://www.w3.org/2000/svg" xmlns:xlink="http://www.w3.org/1999/xlink" x="0px" y="0px"
	 viewBox="0 0 192 192" style="enable-background:new 0 0 192 192;" xml:space="preserve">
<style type="text/css">
	.st0{fill:#E71C23;}
	.st1{fill:#FFFFFF;}
</style>
<rect class="st0" width="192" height="192"/>
<polygon class="st1" points="37.05,92 37.05,92.01 37.05,92.02 37.05,92.02 37.05,92.03 37.05,92.04 37.04,92.04 37.04,92.05 
	37.04,92.05 37.04,92.06 37.04,92.07 37.04,92.07 37.04,92.08 37.03,92.08 37.03,92.09 37.03,92.09 37.03,92.1 37.02,92.11 
	37.02,92.11 37.02,92.12 37.01,92.13 37.01,92.13 37.01,92.14 37,92.14 37,92.15 37,92.15 36.99,92.16 36.99,92.16 36.98,92.17 
	36.98,92.17 36.97,92.18 36.97,92.18 36.96,92.19 36.96,92.2 36.95,92.2 36.95,92.2 36.94,92.21 36.94,92.21 36.93,92.22 
	36.92,92.22 36.92,92.22 36.91,92.23 36.91,92.23 36.9,92.23 36.89,92.24 36.89,92.24 36.88,92.24 36.88,92.25 36.87,92.25 
	36.86,92.25 36.86,92.25 36.85,92.25 36.84,92.26 36.84,92.26 36.83,92.26 36.83,92.26 36.82,92.26 36.81,92.26 36.81,92.26 
	36.8,92.26 36.79,92.26 36.79,92.26 36.78,92.26 36.77,92.26 33.12,92.26 33.11,92.26 33.1,92.26 33.09,92.26 33.08,92.26 
	33.07,92.26 33.06,92.26 33.05,92.26 33.04,92.26 33.03,92.25 33.03,92.25 33.02,92.25 33.01,92.24 33,92.24 32.99,92.24 
	32.98,92.23 32.97,92.23 32.96,92.22 32.96,92.22 32.95,92.21 32.94,92.21 32.93,92.2 32.93,92.19 32.92,92.18 32.91,92.18 
	32.91,92.17 32.9,92.17 32.89,92.16 32.89,92.15 32.88,92.15 32.88,92.14 32.87,92.13 32.87,92.12 32.87,92.11 32.86,92.1 
	32.86,92.1 32.85,92.09 32.85,92.08 32.85,92.07 32.85,92.07 32.84,92.05 32.84,92.05 32.84,92.04 32.84,92.03 32.84,92.02 
	32.84,92.01 32.84,92 32.84,91.99 32.84,91.99 32.85,91.68 32.87,91.37 32.91,91.06 32.95,90.75 33,90.44 33.07,90.13 33.14,89.82 
	33.22,89.51 33.32,89.2 33.42,88.9 33.54,88.6 33.67,88.3 33.8,88 33.95,87.71 34.1,87.42 34.26,87.13 34.44,86.85 34.62,86.58 
	34.81,86.32 35.01,86.06 35.22,85.8 35.44,85.56 35.66,85.32 35.89,85.09 36.12,84.87 36.36,84.65 36.61,84.45 36.86,84.25 
	37.12,84.06 37.38,83.88 37.64,83.71 37.91,83.55 38.19,83.39 38.48,83.24 38.77,83.1 39.07,82.96 39.38,82.84 39.69,82.72 
	40.01,82.61 40.33,82.51 40.66,82.42 40.99,82.34 41.32,82.27 41.66,82.21 42,82.16 42.35,82.12 42.69,82.1 43.03,82.08 
	43.38,82.08 43.72,82.08 44.07,82.1 44.41,82.13 44.75,82.17 45.09,82.22 45.43,82.28 45.76,82.34 46.09,82.43 46.41,82.51 
	46.73,82.62 47.05,82.72 47.35,82.84 47.66,82.97 47.95,83.1 48.24,83.24 48.53,83.39 48.81,83.55 49.09,83.72 49.36,83.9 
	49.63,84.08 49.9,84.28 50.16,84.49 50.42,84.71 50.67,84.93 50.91,85.16 51.14,85.4 51.37,85.65 51.59,85.91 51.8,86.18 52,86.45 
	52.19,86.72 52.38,87.01 52.55,87.3 52.71,87.59 52.87,87.89 53.01,88.19 53.14,88.5 53.26,88.8 53.37,89.11 53.47,89.43 
	53.56,89.74 53.64,90.06 53.71,90.38 53.76,90.69 53.81,91.01 53.84,91.32 53.87,91.64 53.88,91.91 53.89,92.2 53.88,92.48 
	53.88,92.76 53.86,93.05 53.83,93.33 53.79,93.62 53.75,93.91 53.7,94.19 53.63,94.48 53.57,94.77 53.49,95.05 53.4,95.33 
	53.3,95.62 53.2,95.89 53.08,96.17 52.96,96.44 52.83,96.71 52.69,96.98 52.55,97.24 52.39,97.49 52.23,97.75 52.07,97.99 
	51.89,98.23 51.71,98.47 51.52,98.7 51.33,98.93 51.13,99.14 50.92,99.35 50.71,99.56 50.49,99.76 40.04,108.58 39.99,108.62 
	39.94,108.65 39.89,108.69 39.84,108.73 39.79,108.76 39.74,108.8 39.69,108.83 39.63,108.86 39.58,108.89 39.52,108.92 
	39.47,108.95 39.41,108.98 39.35,109 39.3,109.03 39.24,109.05 39.18,109.07 39.12,109.09 39.06,109.11 39,109.13 38.93,109.15 
	38.87,109.16 38.81,109.18 38.75,109.19 38.69,109.2 38.63,109.21 38.56,109.22 38.5,109.23 38.44,109.23 38.38,109.24 
	38.32,109.24 38.25,109.24 33.58,109.24 33.58,109.24 33.57,109.24 33.57,109.24 33.56,109.24 33.56,109.24 33.55,109.24 
	33.55,109.24 33.54,109.24 33.54,109.24 33.53,109.24 33.53,109.24 33.52,109.24 33.52,109.24 33.51,109.24 33.51,109.23 
	33.5,109.23 33.49,109.23 33.49,109.23 33.48,109.23 33.48,109.23 33.47,109.23 33.47,109.22 33.46,109.22 33.46,109.22 
	33.45,109.21 33.45,109.21 33.44,109.21 33.44,109.21 33.44,109.2 33.43,109.2 33.43,109.2 33.42,109.2 33.42,109.19 33.41,109.19 
	33.41,109.19 33.4,109.18 33.4,109.18 33.4,109.18 33.39,109.17 33.39,109.17 33.38,109.17 33.38,109.16 33.38,109.16 33.37,109.15 
	33.37,109.15 33.37,109.15 33.36,109.14 33.36,109.14 33.36,109.14 33.35,109.13 33.35,109.13 33.35,109.12 33.34,109.12 
	33.34,109.11 33.34,109.11 33.34,109.1 33.33,109.1 33.33,109.1 33.33,109.09 33.33,109.09 33.32,109.08 33.32,109.08 33.32,109.07 
	33.32,109.07 33.32,109.06 33.32,109.06 33.31,109.06 33.31,109.05 33.31,109.05 33.31,109.04 33.31,109.03 33.31,109.03 
	33.31,109.03 33.3,109.02 33.3,109.02 33.3,109.01 33.3,109.01 33.3,109 33.3,108.99 33.3,108.99 33.3,108.98 33.3,108.98 
	33.3,108.97 33.3,108.97 33.3,108.96 33.3,108.96 33.3,108.96 33.3,108.95 33.3,108.94 33.3,108.94 33.3,108.93 33.3,108.93 
	33.31,108.92 33.31,108.92 33.31,108.91 33.31,108.91 33.31,108.9 33.31,108.9 33.31,108.89 33.32,108.89 33.32,108.88 
	33.32,108.88 33.32,108.87 33.32,108.87 33.33,108.86 33.33,108.86 33.33,108.85 33.33,108.85 33.34,108.84 33.34,108.84 
	33.34,108.83 33.34,108.83 33.35,108.83 33.35,108.82 33.35,108.82 33.36,108.81 33.36,108.81 33.36,108.8 33.37,108.8 33.37,108.8 
	33.37,108.79 33.38,108.79 33.38,108.79 33.38,108.78 33.39,108.78 33.39,108.77 33.39,108.77 47.65,96.75 47.79,96.63 47.92,96.5 
	48.05,96.36 48.18,96.22 48.3,96.07 48.42,95.93 48.53,95.77 48.64,95.62 48.75,95.45 48.85,95.29 48.94,95.12 49.03,94.95 
	49.12,94.77 49.2,94.6 49.27,94.42 49.34,94.24 49.4,94.06 49.46,93.87 49.5,93.68 49.55,93.5 49.58,93.31 49.61,93.12 49.64,92.93 
	49.66,92.74 49.67,92.55 49.67,92.37 49.68,92.18 49.67,92 49.66,91.81 49.64,91.63 49.62,91.45 49.59,91.27 49.56,91.09 
	49.52,90.91 49.47,90.73 49.42,90.55 49.37,90.37 49.3,90.19 49.23,90.01 49.16,89.84 49.08,89.66 48.99,89.49 48.9,89.32 
	48.8,89.16 48.69,88.99 48.59,88.83 48.47,88.67 48.35,88.52 48.23,88.37 48.1,88.22 47.96,88.08 47.83,87.94 47.68,87.81 
	47.54,87.68 47.39,87.56 47.24,87.44 47.08,87.32 46.92,87.22 46.76,87.11 46.6,87.02 46.43,86.92 46.27,86.84 46.1,86.76 
	45.93,86.68 45.75,86.61 45.58,86.54 45.4,86.48 45.21,86.42 45.03,86.37 44.84,86.32 44.65,86.28 44.45,86.24 44.26,86.22 
	44.06,86.19 43.87,86.17 43.67,86.16 43.47,86.15 43.27,86.15 43.07,86.16 42.87,86.17 42.67,86.19 42.48,86.21 42.28,86.24 
	42.09,86.28 41.89,86.32 41.7,86.37 41.51,86.42 41.33,86.48 41.14,86.54 40.96,86.61 40.79,86.68 40.61,86.76 40.44,86.84 
	40.28,86.93 40.11,87.02 39.95,87.12 39.8,87.22 39.64,87.32 39.49,87.44 39.34,87.55 39.19,87.67 39.04,87.8 38.9,87.93 
	38.77,88.07 38.63,88.21 38.5,88.36 38.38,88.5 38.26,88.66 38.15,88.82 38.04,88.97 37.93,89.14 37.83,89.31 37.74,89.48 
	37.65,89.65 37.57,89.82 37.49,90 37.42,90.18 37.36,90.36 37.3,90.54 37.25,90.73 37.2,90.91 37.16,91.09 37.13,91.27 37.1,91.46 
	37.08,91.64 37.06,91.82 "/>
<polygon class="st1" points="103.02,88.87 103.02,108.98 103.02,108.98 103.02,108.99 103.02,109 103.02,109.01 103.01,109.01 
	103.01,109.02 103.01,109.02 103.01,109.03 103.01,109.04 103.01,109.04 103.01,109.05 103,109.05 103,109.06 103,109.07 
	103,109.07 102.99,109.08 102.99,109.09 102.99,109.09 102.99,109.1 102.98,109.1 102.98,109.11 102.97,109.12 102.97,109.12 
	102.97,109.13 102.96,109.13 102.96,109.14 102.95,109.14 102.95,109.15 102.94,109.15 102.94,109.16 102.93,109.17 102.93,109.17 
	102.92,109.18 102.92,109.18 102.91,109.18 102.91,109.19 102.9,109.19 102.9,109.2 102.89,109.2 102.88,109.2 102.88,109.21 
	102.87,109.21 102.86,109.22 102.86,109.22 102.85,109.22 102.85,109.22 102.84,109.23 102.83,109.23 102.83,109.23 102.82,109.23 
	102.81,109.23 102.81,109.24 102.8,109.24 102.79,109.24 102.79,109.24 102.78,109.24 102.77,109.24 102.77,109.24 102.76,109.24 
	102.76,109.24 102.75,109.24 102.74,109.24 99.09,109.24 99.08,109.24 99.07,109.24 99.07,109.24 99.06,109.24 99.06,109.24 
	99.05,109.24 99.04,109.24 99.04,109.24 99.03,109.24 99.02,109.24 99.02,109.24 99.01,109.23 99,109.23 99,109.23 98.99,109.23 
	98.98,109.23 98.98,109.22 98.97,109.22 98.96,109.22 98.96,109.22 98.95,109.21 98.95,109.21 98.94,109.2 98.93,109.2 98.93,109.2 
	98.92,109.19 98.92,109.19 98.91,109.18 98.9,109.18 98.9,109.18 98.89,109.17 98.89,109.17 98.88,109.16 98.88,109.15 
	98.87,109.15 98.87,109.14 98.86,109.14 98.86,109.13 98.85,109.13 98.85,109.12 98.85,109.12 98.84,109.11 98.84,109.1 
	98.84,109.1 98.83,109.09 98.83,109.09 98.83,109.08 98.82,109.07 98.82,109.07 98.82,109.06 98.82,109.05 98.82,109.05 
	98.82,109.04 98.81,109.04 98.81,109.03 98.81,109.02 98.81,109.02 98.81,109.01 98.81,109.01 98.81,109 98.81,108.99 98.81,108.98 
	98.81,108.98 98.81,82.35 98.81,82.34 98.81,82.34 98.81,82.33 98.81,82.33 98.81,82.32 98.81,82.31 98.81,82.31 98.81,82.3 
	98.81,82.29 98.81,82.29 98.82,82.28 98.82,82.28 98.82,82.27 98.82,82.26 98.82,82.25 98.82,82.25 98.83,82.24 98.83,82.24 
	98.83,82.23 98.84,82.23 98.84,82.22 98.84,82.21 98.85,82.21 98.85,82.2 98.85,82.2 98.86,82.19 98.86,82.18 98.87,82.18 
	98.87,82.17 98.88,82.17 98.88,82.16 98.89,82.16 98.89,82.15 98.9,82.15 98.9,82.14 98.91,82.14 98.92,82.14 98.92,82.13 
	98.93,82.12 98.93,82.12 98.94,82.12 98.95,82.11 98.95,82.11 98.96,82.11 98.96,82.11 98.97,82.1 98.98,82.1 98.98,82.1 
	98.99,82.1 99,82.09 99,82.09 99.01,82.09 99.02,82.09 99.02,82.08 99.03,82.08 99.04,82.08 99.04,82.08 99.05,82.08 99.06,82.08 
	99.06,82.08 99.07,82.08 99.07,82.08 99.08,82.08 100.52,82.08 100.66,82.08 100.81,82.08 100.95,82.09 101.1,82.11 101.24,82.12 
	101.38,82.14 101.53,82.17 101.67,82.19 101.82,82.23 101.96,82.26 102.1,82.3 102.25,82.34 102.39,82.39 102.53,82.44 
	102.66,82.49 102.8,82.55 102.94,82.61 103.07,82.67 103.2,82.74 103.33,82.81 103.46,82.88 103.58,82.96 103.71,83.04 
	103.83,83.12 103.94,83.21 104.06,83.29 104.17,83.38 104.28,83.48 104.39,83.57 104.49,83.67 104.59,83.77 122.18,102.64 
	122.19,102.64 122.19,102.65 122.19,102.65 122.2,102.65 122.2,102.66 122.2,102.66 122.21,102.66 122.21,102.67 122.22,102.67 
	122.22,102.67 122.23,102.68 122.23,102.68 122.23,102.68 122.24,102.68 122.24,102.69 122.25,102.69 122.25,102.69 122.26,102.69 
	122.26,102.7 122.27,102.7 122.27,102.7 122.28,102.71 122.28,102.71 122.29,102.71 122.29,102.71 122.3,102.71 122.3,102.71 
	122.31,102.72 122.31,102.72 122.32,102.72 122.32,102.72 122.33,102.72 122.33,102.72 122.34,102.72 122.34,102.72 122.35,102.72 
	122.35,102.72 122.36,102.73 122.37,102.73 122.37,102.73 122.38,102.73 122.38,102.73 122.39,102.73 122.39,102.73 122.4,102.73 
	122.4,102.73 122.41,102.73 122.41,102.73 122.42,102.72 122.42,102.72 122.43,102.72 122.43,102.72 122.44,102.72 122.44,102.72 
	122.45,102.72 122.45,102.72 122.46,102.72 122.46,102.72 122.47,102.72 122.47,102.71 122.48,102.71 122.48,102.71 122.49,102.71 
	122.49,102.71 122.5,102.71 122.5,102.7 122.51,102.7 122.51,102.7 122.52,102.7 122.52,102.69 122.52,102.69 122.53,102.69 
	122.53,102.69 122.54,102.68 122.54,102.68 122.55,102.68 122.55,102.68 122.56,102.67 122.56,102.67 122.56,102.66 122.57,102.66 
	122.57,102.66 122.58,102.65 122.58,102.65 122.58,102.65 122.59,102.64 122.59,102.64 122.6,102.64 122.6,102.63 122.6,102.63 
	122.61,102.62 122.61,102.62 122.61,102.62 122.62,102.61 122.62,102.61 122.62,102.6 122.62,102.6 122.63,102.6 122.63,102.59 
	122.63,102.59 122.64,102.58 122.64,102.58 122.64,102.57 122.64,102.57 122.64,102.56 122.65,102.56 122.65,102.55 122.65,102.55 
	122.65,102.54 122.65,102.54 122.66,102.53 122.66,102.53 122.66,102.52 122.66,102.52 122.66,102.51 122.66,102.51 122.66,102.5 
	122.66,102.5 122.67,102.49 122.67,102.49 122.67,102.48 122.67,102.48 122.67,102.47 122.67,102.47 122.67,102.46 122.67,102.46 
	122.67,82.34 122.67,82.34 122.67,82.33 122.67,82.33 122.67,82.32 122.67,82.31 122.67,82.31 122.67,82.3 122.67,82.29 
	122.67,82.29 122.68,82.28 122.68,82.28 122.68,82.27 122.68,82.26 122.69,82.25 122.69,82.25 122.69,82.24 122.69,82.24 
	122.7,82.23 122.7,82.23 122.7,82.22 122.71,82.21 122.71,82.21 122.71,82.2 122.72,82.2 122.72,82.19 122.73,82.18 122.73,82.18 
	122.74,82.17 122.74,82.17 122.74,82.16 122.75,82.16 122.76,82.15 122.76,82.15 122.77,82.14 122.77,82.14 122.78,82.14 
	122.78,82.13 122.79,82.12 122.8,82.12 122.8,82.12 122.81,82.11 122.81,82.11 122.82,82.11 122.83,82.11 122.83,82.1 122.84,82.1 
	122.84,82.1 122.85,82.1 122.86,82.09 122.87,82.09 122.87,82.09 122.88,82.09 122.88,82.08 122.89,82.08 122.9,82.08 122.9,82.08 
	122.91,82.08 122.92,82.08 122.92,82.08 122.93,82.08 122.94,82.08 122.94,82.08 126.6,82.08 126.61,82.08 126.61,82.08 
	126.62,82.08 126.62,82.08 126.63,82.08 126.64,82.08 126.64,82.08 126.65,82.08 126.66,82.08 126.66,82.08 126.67,82.09 
	126.68,82.09 126.68,82.09 126.69,82.09 126.7,82.1 126.7,82.1 126.71,82.1 126.71,82.1 126.72,82.11 126.73,82.11 126.73,82.11 
	126.74,82.11 126.75,82.12 126.75,82.12 126.76,82.12 126.76,82.13 126.77,82.14 126.78,82.14 126.78,82.14 126.79,82.15 
	126.79,82.15 126.8,82.16 126.8,82.16 126.81,82.17 126.81,82.17 126.82,82.18 126.82,82.18 126.83,82.19 126.83,82.2 126.83,82.2 
	126.84,82.21 126.84,82.21 126.84,82.22 126.85,82.23 126.85,82.23 126.85,82.24 126.86,82.24 126.86,82.25 126.86,82.25 
	126.86,82.26 126.87,82.27 126.87,82.28 126.87,82.28 126.87,82.29 126.87,82.29 126.87,82.3 126.87,82.31 126.88,82.31 
	126.88,82.32 126.88,82.33 126.88,82.33 126.88,82.34 126.88,82.34 126.88,108.97 126.88,108.98 126.88,108.98 126.88,108.99 
	126.88,109 126.88,109.01 126.88,109.01 126.87,109.02 126.87,109.02 126.87,109.03 126.87,109.04 126.87,109.04 126.87,109.05 
	126.87,109.05 126.86,109.06 126.86,109.07 126.86,109.07 126.86,109.08 126.85,109.09 126.85,109.09 126.85,109.1 126.84,109.1 
	126.84,109.11 126.84,109.12 126.83,109.12 126.83,109.13 126.83,109.13 126.82,109.14 126.82,109.14 126.81,109.15 126.81,109.15 
	126.8,109.16 126.8,109.17 126.79,109.17 126.79,109.18 126.78,109.18 126.78,109.18 126.77,109.19 126.76,109.19 126.76,109.2 
	126.75,109.2 126.75,109.2 126.74,109.21 126.73,109.21 126.73,109.22 126.72,109.22 126.71,109.22 126.71,109.22 126.7,109.23 
	126.7,109.23 126.69,109.23 126.68,109.23 126.68,109.23 126.67,109.24 126.66,109.24 126.66,109.24 126.65,109.24 126.64,109.24 
	126.64,109.24 126.63,109.24 126.62,109.24 126.62,109.24 126.61,109.24 126.61,109.24 125.16,109.24 125.02,109.24 124.88,109.24 
	124.73,109.23 124.59,109.22 124.45,109.2 124.3,109.18 124.16,109.16 124.01,109.13 123.87,109.1 123.72,109.06 123.58,109.02 
	123.44,108.98 123.3,108.94 123.16,108.89 123.02,108.83 122.88,108.78 122.75,108.72 122.61,108.65 122.48,108.59 122.35,108.51 
	122.23,108.44 122.1,108.36 121.98,108.28 121.86,108.2 121.74,108.12 121.63,108.03 121.51,107.94 121.4,107.85 121.3,107.75 
	121.19,107.65 121.09,107.55 103.5,88.68 103.5,88.68 103.5,88.68 103.49,88.67 103.49,88.67 103.48,88.67 103.48,88.66 
	103.48,88.66 103.47,88.66 103.47,88.65 103.46,88.65 103.46,88.65 103.46,88.65 103.45,88.64 103.45,88.64 103.44,88.64 
	103.44,88.63 103.43,88.63 103.43,88.63 103.42,88.63 103.42,88.62 103.41,88.62 103.41,88.62 103.4,88.62 103.4,88.62 
	103.39,88.61 103.39,88.61 103.38,88.61 103.38,88.61 103.37,88.61 103.37,88.61 103.36,88.6 103.36,88.6 103.35,88.6 103.35,88.6 
	103.34,88.6 103.34,88.6 103.33,88.6 103.33,88.6 103.32,88.6 103.31,88.6 103.31,88.6 103.3,88.6 103.3,88.6 103.29,88.6 
	103.29,88.6 103.28,88.6 103.28,88.6 103.27,88.6 103.27,88.6 103.26,88.6 103.26,88.6 103.25,88.6 103.25,88.6 103.24,88.6 
	103.24,88.6 103.23,88.61 103.22,88.61 103.22,88.61 103.22,88.61 103.21,88.61 103.21,88.61 103.2,88.61 103.2,88.61 103.19,88.62 
	103.19,88.62 103.18,88.62 103.18,88.62 103.17,88.62 103.17,88.63 103.16,88.63 103.16,88.63 103.16,88.64 103.15,88.64 
	103.15,88.64 103.14,88.64 103.14,88.65 103.13,88.65 103.13,88.65 103.13,88.65 103.12,88.66 103.12,88.66 103.11,88.66 
	103.11,88.67 103.1,88.67 103.1,88.67 103.1,88.68 103.09,88.68 103.09,88.69 103.09,88.69 103.08,88.69 103.08,88.7 103.08,88.7 
	103.07,88.71 103.07,88.71 103.07,88.71 103.06,88.72 103.06,88.72 103.06,88.73 103.06,88.73 103.05,88.74 103.05,88.74 
	103.05,88.75 103.04,88.75 103.04,88.76 103.04,88.76 103.04,88.77 103.04,88.77 103.03,88.78 103.03,88.78 103.03,88.78 
	103.03,88.79 103.03,88.79 103.03,88.8 103.02,88.8 103.02,88.81 103.02,88.82 103.02,88.82 103.02,88.82 103.02,88.83 
	103.02,88.83 103.02,88.84 103.02,88.84 103.02,88.85 103.02,88.86 103.02,88.86 103.02,88.86 "/>
<polygon class="st1" points="90.66,109.24 94.32,109.24 94.33,109.24 94.33,109.24 94.34,109.24 94.34,109.24 94.35,109.24 
	94.36,109.24 94.37,109.24 94.37,109.24 94.38,109.24 94.38,109.24 94.39,109.23 94.4,109.23 94.4,109.23 94.41,109.23 
	94.42,109.23 94.42,109.22 94.43,109.22 94.44,109.22 94.44,109.21 94.45,109.21 94.45,109.21 94.46,109.2 94.47,109.2 94.47,109.2 
	94.48,109.19 94.48,109.19 94.49,109.18 94.5,109.18 94.5,109.18 94.51,109.17 94.51,109.17 94.52,109.16 94.52,109.15 
	94.53,109.15 94.53,109.14 94.54,109.14 94.54,109.13 94.54,109.13 94.55,109.12 94.55,109.12 94.56,109.11 94.56,109.1 
	94.56,109.1 94.57,109.09 94.57,109.09 94.57,109.08 94.57,109.07 94.58,109.07 94.58,109.06 94.58,109.05 94.58,109.05 
	94.58,109.04 94.59,109.03 94.59,109.03 94.59,109.02 94.59,109.02 94.59,109.01 94.59,109.01 94.59,109 94.59,108.99 94.59,108.98 
	94.59,108.98 94.59,82.35 94.59,82.34 94.59,82.34 94.59,82.33 94.59,82.33 94.59,82.32 94.59,82.31 94.59,82.3 94.59,82.3 
	94.59,82.29 94.59,82.29 94.58,82.28 94.58,82.28 94.58,82.27 94.58,82.26 94.58,82.25 94.57,82.25 94.57,82.24 94.57,82.24 
	94.57,82.23 94.56,82.22 94.56,82.22 94.56,82.21 94.55,82.21 94.55,82.2 94.54,82.2 94.54,82.19 94.54,82.18 94.53,82.18 
	94.53,82.17 94.52,82.17 94.52,82.16 94.51,82.16 94.51,82.15 94.5,82.15 94.5,82.14 94.49,82.14 94.48,82.14 94.48,82.13 
	94.47,82.12 94.47,82.12 94.46,82.12 94.45,82.11 94.45,82.11 94.44,82.11 94.44,82.11 94.43,82.1 94.42,82.1 94.42,82.1 
	94.41,82.09 94.4,82.09 94.4,82.09 94.39,82.09 94.38,82.09 94.38,82.08 94.37,82.08 94.37,82.08 94.36,82.08 94.35,82.08 
	94.34,82.08 94.34,82.08 94.33,82.08 94.33,82.08 94.32,82.08 90.66,82.08 90.66,82.08 90.65,82.08 90.65,82.08 90.64,82.08 
	90.63,82.08 90.63,82.08 90.62,82.08 90.61,82.08 90.61,82.08 90.6,82.08 90.59,82.09 90.59,82.09 90.58,82.09 90.57,82.09 
	90.57,82.09 90.56,82.1 90.55,82.1 90.55,82.1 90.54,82.11 90.54,82.11 90.53,82.11 90.52,82.11 90.52,82.12 90.51,82.12 
	90.5,82.12 90.5,82.13 90.49,82.14 90.49,82.14 90.48,82.14 90.48,82.15 90.47,82.15 90.47,82.16 90.46,82.16 90.46,82.17 
	90.45,82.17 90.45,82.18 90.44,82.18 90.44,82.19 90.43,82.2 90.43,82.2 90.43,82.21 90.42,82.21 90.42,82.22 90.41,82.22 
	90.41,82.23 90.41,82.24 90.41,82.24 90.4,82.25 90.4,82.25 90.4,82.26 90.4,82.27 90.39,82.28 90.39,82.28 90.39,82.29 
	90.39,82.29 90.39,82.3 90.39,82.3 90.39,82.31 90.38,82.32 90.38,82.33 90.38,82.33 90.38,82.34 90.38,82.34 90.38,108.97 
	90.38,108.98 90.38,108.98 90.38,108.99 90.38,109 90.38,109.01 90.39,109.01 90.39,109.02 90.39,109.02 90.39,109.03 90.39,109.03 
	90.39,109.04 90.39,109.05 90.4,109.05 90.4,109.06 90.4,109.07 90.4,109.07 90.41,109.08 90.41,109.09 90.41,109.09 90.41,109.1 
	90.42,109.1 90.42,109.11 90.43,109.12 90.43,109.12 90.43,109.13 90.44,109.13 90.44,109.14 90.45,109.14 90.45,109.15 
	90.46,109.15 90.46,109.16 90.47,109.17 90.47,109.17 90.48,109.18 90.48,109.18 90.49,109.18 90.49,109.19 90.5,109.19 90.5,109.2 
	90.51,109.2 90.52,109.2 90.52,109.21 90.53,109.21 90.54,109.21 90.54,109.22 90.55,109.22 90.55,109.22 90.56,109.23 
	90.57,109.23 90.57,109.23 90.58,109.23 90.59,109.23 90.59,109.24 90.6,109.24 90.61,109.24 90.61,109.24 90.62,109.24 
	90.63,109.24 90.63,109.24 90.64,109.24 90.65,109.24 90.65,109.24 90.66,109.24 "/>
<polygon class="st1" points="159.16,99.42 159.16,99.41 159.16,99.41 159.16,99.4 159.16,99.4 159.16,99.39 159.16,99.38 
	159.16,99.38 159.16,99.37 159.16,99.36 159.16,99.36 159.15,99.35 159.15,99.35 159.15,99.34 159.15,99.33 159.15,99.33 
	159.14,99.32 159.14,99.31 159.14,99.31 159.14,99.3 159.13,99.3 159.13,99.29 159.13,99.28 159.12,99.28 159.12,99.27 
	159.12,99.27 159.11,99.26 159.11,99.26 159.1,99.25 159.1,99.25 159.1,99.25 159.09,99.24 155.44,95.48 155.43,95.48 155.43,95.47 
	155.43,95.47 155.42,95.47 155.42,95.46 155.42,95.46 155.41,95.46 155.41,95.45 155.4,95.45 155.4,95.45 155.4,95.45 155.39,95.44 
	155.39,95.44 155.38,95.44 155.38,95.44 155.37,95.43 155.37,95.43 155.37,95.43 155.36,95.42 155.36,95.42 155.35,95.42 
	155.35,95.42 155.34,95.42 155.34,95.41 155.33,95.41 155.33,95.41 155.32,95.41 155.32,95.41 155.31,95.41 155.3,95.41 155.3,95.4 
	155.29,95.4 155.29,95.4 155.28,95.4 155.28,95.4 155.27,95.4 155.27,95.4 155.26,95.4 155.26,95.4 155.25,95.4 155.25,95.4 
	155.24,95.4 155.24,95.4 155.23,95.4 155.23,95.4 155.22,95.4 155.21,95.4 155.21,95.4 155.2,95.4 155.2,95.4 155.19,95.4 
	155.19,95.4 155.18,95.4 155.18,95.4 155.17,95.4 155.17,95.4 155.16,95.4 155.16,95.41 155.15,95.41 155.15,95.41 155.14,95.41 
	155.14,95.41 155.13,95.41 155.13,95.41 155.13,95.42 155.12,95.42 155.12,95.42 155.11,95.42 155.11,95.42 155.1,95.43 
	155.1,95.43 155.09,95.43 155.09,95.44 155.09,95.44 155.08,95.44 155.08,95.44 155.07,95.45 155.07,95.45 155.06,95.45 
	155.06,95.45 155.06,95.46 155.05,95.46 155.05,95.46 155.04,95.47 155.04,95.47 155.03,95.47 155.03,95.48 155.03,95.48 
	155.02,95.49 155.02,95.49 155.02,95.49 155.01,95.5 155.01,95.5 155.01,95.51 155,95.51 155,95.51 155,95.52 155,95.52 
	154.99,95.53 154.99,95.53 154.99,95.54 154.98,95.54 154.98,95.55 154.98,95.55 154.98,95.55 154.98,95.56 154.97,95.56 
	154.97,95.57 154.97,95.58 154.97,95.58 154.97,95.58 154.96,95.59 154.96,95.59 154.96,95.6 154.96,95.61 154.96,95.61 
	154.96,95.61 154.96,95.62 154.96,95.62 154.95,95.63 154.95,95.63 154.95,95.64 154.95,95.64 154.95,95.65 154.95,95.65 
	154.95,95.66 154.95,95.66 154.95,102.51 154.95,102.58 154.95,102.64 154.94,102.7 154.93,102.76 154.93,102.82 154.92,102.88 
	154.91,102.95 154.89,103.01 154.88,103.07 154.86,103.14 154.84,103.2 154.82,103.26 154.8,103.33 154.78,103.39 154.75,103.45 
	154.73,103.52 154.7,103.58 154.67,103.64 154.64,103.7 154.61,103.76 154.57,103.82 154.53,103.88 154.49,103.94 154.45,104 
	154.41,104.05 154.37,104.11 154.32,104.17 154.28,104.22 154.23,104.27 154.18,104.32 154.13,104.37 154.08,104.42 154.02,104.47 
	153.97,104.52 153.91,104.56 153.86,104.61 153.8,104.65 153.74,104.69 153.68,104.73 153.62,104.77 153.56,104.8 153.5,104.84 
	153.43,104.87 153.37,104.9 153.31,104.93 153.24,104.95 153.18,104.98 153.11,105 153.05,105.03 152.98,105.05 152.92,105.07 
	152.85,105.08 152.79,105.1 152.72,105.11 152.66,105.12 152.59,105.13 152.53,105.15 152.46,105.15 152.4,105.16 152.33,105.16 
	152.27,105.17 152.21,105.17 138.11,105.17 138.05,105.17 137.98,105.17 137.92,105.16 137.86,105.16 137.79,105.15 137.73,105.15 
	137.66,105.13 137.6,105.12 137.53,105.11 137.47,105.1 137.4,105.08 137.34,105.07 137.27,105.05 137.21,105.03 137.14,105 
	137.07,104.98 137.01,104.95 136.95,104.93 136.88,104.9 136.82,104.87 136.76,104.84 136.69,104.8 136.63,104.77 136.57,104.73 
	136.51,104.69 136.45,104.65 136.4,104.61 136.34,104.56 136.28,104.52 136.23,104.47 136.18,104.42 136.12,104.37 136.07,104.32 
	136.02,104.27 135.98,104.22 135.93,104.17 135.88,104.11 135.84,104.05 135.8,104 135.76,103.94 135.72,103.88 135.68,103.82 
	135.65,103.76 135.61,103.7 135.58,103.64 135.55,103.58 135.52,103.52 135.5,103.45 135.47,103.39 135.45,103.33 135.43,103.26 
	135.41,103.2 135.39,103.14 135.38,103.07 135.36,103.01 135.35,102.95 135.34,102.88 135.33,102.82 135.32,102.76 135.31,102.7 
	135.31,102.64 135.3,102.58 135.3,102.51 135.3,88.87 135.3,88.81 135.3,88.75 135.31,88.69 135.31,88.62 135.32,88.56 135.33,88.5 
	135.34,88.44 135.35,88.38 135.36,88.31 135.38,88.25 135.39,88.18 135.41,88.12 135.43,88.06 135.45,88 135.47,87.93 135.5,87.87 
	135.52,87.81 135.55,87.74 135.58,87.68 135.61,87.62 135.65,87.56 135.68,87.5 135.72,87.44 135.76,87.38 135.8,87.32 
	135.84,87.27 135.88,87.21 135.93,87.16 135.98,87.1 136.02,87.05 136.07,87 136.12,86.95 136.18,86.9 136.23,86.85 136.28,86.8 
	136.34,86.76 136.4,86.72 136.45,86.67 136.51,86.63 136.57,86.59 136.63,86.56 136.69,86.52 136.76,86.49 136.82,86.46 
	136.88,86.43 136.95,86.4 137.01,86.37 137.07,86.34 137.14,86.32 137.21,86.3 137.27,86.28 137.34,86.26 137.4,86.24 137.47,86.22 
	137.53,86.21 137.6,86.2 137.66,86.19 137.73,86.18 137.79,86.17 137.86,86.16 137.92,86.16 137.98,86.15 138.05,86.15 
	154.68,86.15 154.68,86.15 154.69,86.15 154.7,86.15 154.7,86.15 154.71,86.15 154.72,86.15 154.72,86.15 154.73,86.15 
	154.74,86.15 154.74,86.14 154.75,86.14 154.75,86.14 154.76,86.14 154.77,86.14 154.78,86.13 154.78,86.13 154.79,86.13 
	154.79,86.13 154.8,86.12 154.81,86.12 154.81,86.11 154.82,86.11 154.82,86.11 154.83,86.1 154.84,86.1 154.84,86.1 154.85,86.09 
	154.85,86.09 154.86,86.08 154.86,86.08 154.87,86.07 154.88,86.07 154.88,86.06 154.89,86.06 154.89,86.05 154.89,86.05 
	154.9,86.04 154.9,86.04 154.91,86.03 154.91,86.02 154.91,86.02 154.92,86.01 154.92,86.01 154.92,86 154.93,85.99 154.93,85.99 
	154.93,85.98 154.93,85.97 154.94,85.97 154.94,85.96 154.94,85.96 154.94,85.95 154.95,85.94 154.95,85.94 154.95,85.93 
	154.95,85.92 154.95,85.92 154.95,85.91 154.95,85.91 154.95,85.9 154.95,85.89 154.95,85.89 154.95,82.35 154.95,82.34 
	154.95,82.34 154.95,82.33 154.95,82.33 154.95,82.32 154.95,82.31 154.95,82.3 154.95,82.3 154.95,82.29 154.95,82.29 
	154.94,82.28 154.94,82.28 154.94,82.27 154.94,82.26 154.93,82.25 154.93,82.25 154.93,82.24 154.93,82.24 154.92,82.23 
	154.92,82.23 154.92,82.22 154.91,82.21 154.91,82.21 154.91,82.2 154.9,82.2 154.9,82.19 154.89,82.18 154.89,82.18 154.89,82.17 
	154.88,82.17 154.88,82.16 154.87,82.16 154.86,82.15 154.86,82.15 154.85,82.14 154.85,82.14 154.84,82.14 154.84,82.13 
	154.83,82.12 154.82,82.12 154.82,82.12 154.81,82.11 154.81,82.11 154.8,82.11 154.79,82.11 154.79,82.1 154.78,82.1 154.78,82.1 
	154.77,82.09 154.76,82.09 154.75,82.09 154.75,82.09 154.74,82.09 154.74,82.08 154.73,82.08 154.72,82.08 154.72,82.08 
	154.71,82.08 154.7,82.08 154.7,82.08 154.69,82.08 154.68,82.08 154.68,82.08 138.11,82.08 137.95,82.08 137.8,82.08 137.64,82.09 
	137.48,82.11 137.32,82.12 137.16,82.14 136.99,82.16 136.83,82.19 136.67,82.22 136.5,82.26 136.34,82.3 136.18,82.34 
	136.01,82.39 135.85,82.44 135.69,82.5 135.52,82.55 135.36,82.62 135.2,82.69 135.04,82.76 134.88,82.84 134.73,82.92 134.57,83 
	134.42,83.09 134.27,83.19 134.12,83.28 133.97,83.38 133.83,83.49 133.69,83.6 133.55,83.71 133.41,83.82 133.28,83.94 
	133.15,84.07 133.02,84.19 132.9,84.32 132.78,84.45 132.66,84.59 132.55,84.73 132.44,84.87 132.33,85.01 132.23,85.15 
	132.14,85.3 132.05,85.45 131.96,85.6 131.87,85.75 131.79,85.9 131.72,86.06 131.65,86.21 131.58,86.37 131.52,86.53 131.46,86.69 
	131.41,86.84 131.36,87 131.32,87.16 131.27,87.32 131.24,87.48 131.21,87.64 131.18,87.79 131.15,87.95 131.14,88.1 131.12,88.26 
	131.11,88.41 131.1,88.57 131.09,88.72 131.09,102.45 131.09,102.6 131.1,102.75 131.11,102.91 131.12,103.06 131.14,103.22 
	131.15,103.38 131.18,103.53 131.21,103.69 131.24,103.85 131.27,104.01 131.32,104.16 131.36,104.32 131.41,104.48 131.46,104.64 
	131.52,104.8 131.58,104.95 131.65,105.11 131.72,105.26 131.79,105.42 131.87,105.57 131.96,105.72 132.05,105.87 132.14,106.02 
	132.23,106.17 132.33,106.32 132.44,106.46 132.55,106.6 132.66,106.73 132.78,106.87 132.9,107 133.02,107.13 133.15,107.26 
	133.28,107.38 133.41,107.5 133.55,107.62 133.69,107.73 133.83,107.84 133.97,107.94 134.12,108.04 134.27,108.14 134.42,108.23 
	134.57,108.32 134.73,108.41 134.88,108.49 135.04,108.56 135.2,108.64 135.36,108.7 135.52,108.77 135.69,108.83 135.85,108.88 
	136.01,108.94 136.18,108.98 136.34,109.03 136.5,109.07 136.67,109.1 136.83,109.13 136.99,109.16 137.16,109.18 137.32,109.2 
	137.48,109.22 137.64,109.23 137.8,109.24 137.95,109.24 152.15,109.24 152.3,109.24 152.46,109.24 152.62,109.23 152.78,109.22 
	152.94,109.2 153.1,109.18 153.26,109.16 153.42,109.13 153.59,109.1 153.75,109.07 153.91,109.03 154.08,108.98 154.24,108.94 
	154.4,108.88 154.57,108.83 154.73,108.77 154.89,108.7 155.05,108.64 155.21,108.56 155.37,108.49 155.53,108.41 155.68,108.32 
	155.83,108.23 155.99,108.14 156.14,108.04 156.28,107.94 156.43,107.84 156.57,107.73 156.71,107.62 156.84,107.5 156.98,107.38 
	157.11,107.26 157.23,107.13 157.36,107 157.48,106.87 157.59,106.73 157.71,106.6 157.81,106.46 157.92,106.32 158.02,106.17 
	158.12,106.02 158.21,105.87 158.3,105.72 158.38,105.57 158.46,105.42 158.53,105.26 158.6,105.11 158.67,104.95 158.73,104.8 
	158.79,104.64 158.84,104.48 158.89,104.32 158.94,104.16 158.98,104.01 159.01,103.85 159.05,103.69 159.07,103.53 159.1,103.38 
	159.12,103.22 159.13,103.06 159.15,102.91 159.16,102.75 159.16,102.6 "/>
<polygon class="st1" points="63.01,107.21 63.01,107.15 63.01,107.09 63,107.03 63,106.96 62.99,106.9 62.99,106.84 62.98,106.78 
	62.97,106.71 62.95,106.65 62.94,106.59 62.92,106.52 62.9,106.46 62.88,106.4 62.86,106.33 62.84,106.27 62.81,106.21 
	62.79,106.15 62.76,106.08 62.73,106.02 62.7,105.96 62.66,105.9 62.63,105.84 62.59,105.78 62.55,105.72 62.51,105.66 
	62.47,105.61 62.43,105.55 62.38,105.5 62.34,105.44 62.29,105.39 62.24,105.34 62.19,105.29 62.14,105.24 62.08,105.19 
	62.03,105.14 61.97,105.1 61.92,105.06 61.86,105.01 61.8,104.97 61.74,104.93 61.68,104.9 61.62,104.86 61.56,104.83 61.49,104.8 
	61.43,104.76 61.37,104.73 61.3,104.71 61.24,104.68 61.17,104.66 61.11,104.64 61.04,104.62 60.98,104.6 60.91,104.58 
	60.85,104.56 60.78,104.55 60.72,104.54 60.65,104.52 60.59,104.52 60.52,104.51 60.46,104.5 60.39,104.5 60.33,104.49 
	60.27,104.49 60.2,104.49 60.14,104.49 60.08,104.49 60.02,104.5 59.95,104.5 59.89,104.51 59.82,104.52 59.76,104.52 59.69,104.54 
	59.63,104.55 59.56,104.56 59.5,104.58 59.43,104.6 59.37,104.62 59.3,104.64 59.24,104.66 59.17,104.68 59.11,104.71 59.04,104.73 
	58.98,104.76 58.91,104.8 58.85,104.83 58.79,104.86 58.73,104.9 58.67,104.93 58.61,104.97 58.55,105.01 58.49,105.06 58.43,105.1 
	58.38,105.14 58.33,105.19 58.27,105.24 58.22,105.29 58.17,105.34 58.12,105.39 58.07,105.44 58.02,105.5 57.98,105.55 
	57.94,105.61 57.89,105.66 57.85,105.72 57.82,105.78 57.78,105.84 57.74,105.9 57.71,105.96 57.68,106.02 57.65,106.08 
	57.62,106.15 57.59,106.21 57.57,106.27 57.55,106.33 57.52,106.4 57.51,106.46 57.49,106.52 57.47,106.59 57.46,106.65 
	57.44,106.71 57.43,106.78 57.42,106.84 57.41,106.9 57.41,106.96 57.4,107.03 57.4,107.09 57.4,107.15 57.4,107.21 57.4,107.27 
	57.4,107.33 57.4,107.39 57.41,107.45 57.41,107.51 57.42,107.58 57.43,107.64 57.44,107.7 57.46,107.76 57.47,107.83 57.49,107.89 
	57.51,107.96 57.52,108.02 57.55,108.08 57.57,108.15 57.59,108.21 57.62,108.27 57.65,108.33 57.68,108.4 57.71,108.46 
	57.74,108.52 57.78,108.58 57.82,108.64 57.85,108.7 57.89,108.75 57.94,108.81 57.98,108.87 58.02,108.92 58.07,108.97 
	58.12,109.03 58.17,109.08 58.22,109.13 58.27,109.18 58.33,109.23 58.38,109.27 58.43,109.32 58.49,109.36 58.55,109.4 
	58.61,109.44 58.67,109.48 58.73,109.52 58.79,109.55 58.85,109.59 58.91,109.62 58.98,109.65 59.04,109.68 59.11,109.71 
	59.17,109.73 59.24,109.76 59.3,109.78 59.37,109.8 59.43,109.82 59.5,109.84 59.56,109.85 59.63,109.87 59.69,109.88 59.76,109.89 
	59.82,109.9 59.89,109.91 59.95,109.91 60.02,109.92 60.08,109.92 60.14,109.92 60.2,109.92 60.27,109.92 60.33,109.92 
	60.39,109.92 60.46,109.91 60.52,109.91 60.59,109.9 60.65,109.89 60.72,109.88 60.78,109.87 60.85,109.85 60.91,109.84 
	60.98,109.82 61.04,109.8 61.11,109.78 61.17,109.76 61.24,109.73 61.3,109.71 61.37,109.68 61.43,109.65 61.49,109.62 
	61.56,109.59 61.62,109.55 61.68,109.52 61.74,109.48 61.8,109.44 61.86,109.4 61.92,109.36 61.97,109.32 62.03,109.27 
	62.08,109.23 62.14,109.18 62.19,109.13 62.24,109.08 62.29,109.03 62.34,108.97 62.38,108.92 62.43,108.87 62.47,108.81 
	62.51,108.75 62.55,108.7 62.59,108.64 62.63,108.58 62.66,108.52 62.7,108.46 62.73,108.4 62.76,108.33 62.79,108.27 62.81,108.21 
	62.84,108.15 62.86,108.08 62.88,108.02 62.9,107.96 62.92,107.89 62.94,107.83 62.95,107.76 62.97,107.7 62.98,107.64 
	62.99,107.58 62.99,107.51 63,107.45 63,107.39 63.01,107.33 63.01,107.27 "/>
<polygon class="st1" points="54.59,107.21 54.58,107.15 54.58,107.09 54.58,107.03 54.57,106.96 54.57,106.9 54.56,106.84 
	54.55,106.78 54.54,106.71 54.53,106.65 54.51,106.59 54.5,106.52 54.48,106.46 54.46,106.4 54.44,106.33 54.41,106.27 
	54.39,106.21 54.36,106.15 54.33,106.08 54.3,106.02 54.27,105.96 54.24,105.9 54.2,105.84 54.17,105.78 54.13,105.72 54.09,105.66 
	54.05,105.61 54,105.55 53.96,105.5 53.91,105.44 53.86,105.39 53.81,105.34 53.76,105.29 53.71,105.24 53.66,105.19 53.6,105.14 
	53.55,105.1 53.49,105.06 53.43,105.01 53.37,104.97 53.31,104.93 53.25,104.9 53.19,104.86 53.13,104.83 53.07,104.8 53,104.76 
	52.94,104.73 52.88,104.71 52.81,104.68 52.75,104.66 52.68,104.64 52.62,104.62 52.55,104.6 52.49,104.58 52.42,104.56 
	52.35,104.55 52.29,104.54 52.22,104.52 52.16,104.52 52.09,104.51 52.03,104.5 51.97,104.5 51.9,104.49 51.84,104.49 51.78,104.49 
	51.71,104.49 51.65,104.49 51.59,104.5 51.53,104.5 51.46,104.51 51.4,104.52 51.33,104.52 51.27,104.54 51.2,104.55 51.14,104.56 
	51.07,104.58 51,104.6 50.94,104.62 50.87,104.64 50.81,104.66 50.74,104.68 50.68,104.71 50.62,104.73 50.55,104.76 50.49,104.8 
	50.42,104.83 50.36,104.86 50.3,104.9 50.24,104.93 50.18,104.97 50.12,105.01 50.06,105.06 50.01,105.1 49.95,105.14 49.9,105.19 
	49.85,105.24 49.79,105.29 49.74,105.34 49.69,105.39 49.65,105.44 49.6,105.5 49.55,105.55 49.51,105.61 49.47,105.66 
	49.43,105.72 49.39,105.78 49.35,105.84 49.32,105.9 49.28,105.96 49.25,106.02 49.22,106.08 49.19,106.15 49.17,106.21 
	49.14,106.27 49.12,106.33 49.1,106.4 49.08,106.46 49.06,106.52 49.04,106.59 49.03,106.65 49.02,106.71 49.01,106.78 49,106.84 
	48.99,106.9 48.98,106.96 48.98,107.03 48.97,107.09 48.97,107.15 48.97,107.21 48.97,107.27 48.97,107.33 48.98,107.39 
	48.98,107.45 48.99,107.51 49,107.58 49.01,107.64 49.02,107.7 49.03,107.76 49.04,107.83 49.06,107.89 49.08,107.96 49.1,108.02 
	49.12,108.08 49.14,108.15 49.17,108.21 49.19,108.27 49.22,108.33 49.25,108.4 49.28,108.46 49.32,108.52 49.35,108.58 
	49.39,108.64 49.43,108.7 49.47,108.75 49.51,108.81 49.55,108.87 49.6,108.92 49.65,108.97 49.69,109.03 49.74,109.08 
	49.79,109.13 49.85,109.18 49.9,109.23 49.95,109.27 50.01,109.32 50.06,109.36 50.12,109.4 50.18,109.44 50.24,109.48 50.3,109.52 
	50.36,109.55 50.42,109.59 50.49,109.62 50.55,109.65 50.62,109.68 50.68,109.71 50.74,109.73 50.81,109.76 50.87,109.78 
	50.94,109.8 51,109.82 51.07,109.84 51.14,109.85 51.2,109.87 51.27,109.88 51.33,109.89 51.4,109.9 51.46,109.91 51.53,109.91 
	51.59,109.92 51.65,109.92 51.71,109.92 51.78,109.92 51.84,109.92 51.9,109.92 51.97,109.92 52.03,109.91 52.09,109.91 
	52.16,109.9 52.22,109.89 52.29,109.88 52.35,109.87 52.42,109.85 52.49,109.84 52.55,109.82 52.62,109.8 52.68,109.78 
	52.75,109.76 52.81,109.73 52.88,109.71 52.94,109.68 53,109.65 53.07,109.62 53.13,109.59 53.19,109.55 53.25,109.52 53.31,109.48 
	53.37,109.44 53.43,109.4 53.49,109.36 53.55,109.32 53.6,109.27 53.66,109.23 53.71,109.18 53.76,109.13 53.81,109.08 
	53.86,109.03 53.91,108.97 53.96,108.92 54,108.87 54.05,108.81 54.09,108.75 54.13,108.7 54.17,108.64 54.2,108.58 54.24,108.52 
	54.27,108.46 54.3,108.4 54.33,108.33 54.36,108.27 54.39,108.21 54.41,108.15 54.44,108.08 54.46,108.02 54.48,107.96 54.5,107.89 
	54.51,107.83 54.53,107.76 54.54,107.7 54.55,107.64 54.56,107.58 54.57,107.51 54.57,107.45 54.58,107.39 54.58,107.33 
	54.58,107.27 "/>
<polygon class="st1" points="81.6,109.24 81.53,109.24 81.46,109.24 81.39,109.24 81.32,109.23 81.25,109.22 81.18,109.21 
	81.11,109.2 81.04,109.19 80.97,109.18 80.9,109.16 80.83,109.14 80.76,109.12 80.69,109.1 80.63,109.07 80.56,109.05 80.49,109.02 
	80.42,108.99 80.36,108.96 80.29,108.93 80.23,108.9 80.17,108.86 80.11,108.83 80.04,108.79 79.99,108.75 79.93,108.71 
	79.87,108.67 79.82,108.62 79.76,108.58 79.71,108.53 79.66,108.49 79.61,108.44 66.97,95.44 66.96,95.43 66.95,95.43 66.95,95.42 
	66.95,95.42 66.94,95.41 66.94,95.41 66.94,95.41 66.94,95.4 66.93,95.4 66.93,95.39 66.93,95.39 66.93,95.38 66.92,95.38 
	66.92,95.38 66.92,95.37 66.92,95.37 66.91,95.36 66.91,95.36 66.91,95.36 66.91,95.35 66.91,95.34 66.9,95.34 66.9,95.33 
	66.9,95.33 66.9,95.33 66.9,95.32 66.9,95.32 66.9,95.31 66.89,95.31 66.89,95.3 66.89,95.3 66.89,95.29 66.89,95.29 66.89,95.28 
	66.89,95.28 66.89,95.27 66.89,95.27 66.89,95.26 66.89,95.25 66.89,95.25 66.89,95.25 66.89,95.24 66.89,95.24 66.89,95.23 
	66.89,95.23 66.89,95.22 66.89,95.21 66.89,95.21 66.89,95.21 66.89,95.2 66.9,95.2 66.9,95.19 66.9,95.19 66.9,95.18 66.9,95.18 
	66.9,95.17 66.9,95.17 66.91,95.16 66.91,95.15 66.91,95.15 66.92,95.14 66.92,95.13 66.92,95.12 66.93,95.12 66.93,95.12 
	66.93,95.11 66.93,95.11 66.94,95.1 66.94,95.1 66.94,95.1 66.94,95.09 66.95,95.09 66.95,95.08 66.95,95.08 66.96,95.08 
	66.96,95.07 66.97,95.07 66.97,95.07 66.97,95.06 66.98,95.06 66.98,95.06 66.98,95.05 66.99,95.05 66.99,95.04 67,95.04 67,95.04 
	67,95.03 67.01,95.03 67.01,95.03 67.02,95.03 67.02,95.02 67.03,95.02 67.03,95.02 67.03,95.02 67.04,95.01 67.04,95.01 
	67.05,95.01 67.05,95.01 67.06,95.01 67.06,95 67.07,95 67.07,95 67.08,95 67.08,95 67.09,94.99 67.09,94.99 67.1,94.99 67.1,94.99 
	67.11,94.99 67.11,94.99 67.12,94.99 67.12,94.99 67.13,94.99 67.13,94.98 67.14,94.98 67.14,94.98 67.15,94.98 67.15,94.98 
	67.16,94.98 79.22,94.98 79.28,94.98 79.34,94.98 79.41,94.97 79.47,94.97 79.53,94.96 79.6,94.95 79.67,94.94 79.73,94.93 
	79.8,94.91 79.86,94.89 79.93,94.88 79.99,94.86 80.06,94.84 80.12,94.82 80.19,94.79 80.25,94.77 80.32,94.74 80.38,94.71 
	80.44,94.68 80.51,94.65 80.57,94.61 80.63,94.58 80.69,94.54 80.75,94.5 80.81,94.46 80.87,94.42 80.92,94.37 80.98,94.33 
	81.03,94.28 81.09,94.24 81.14,94.19 81.19,94.13 81.24,94.08 81.29,94.03 81.33,93.98 81.38,93.92 81.42,93.87 81.46,93.81 
	81.5,93.75 81.54,93.69 81.58,93.63 81.61,93.58 81.65,93.51 81.68,93.45 81.71,93.39 81.74,93.33 81.76,93.26 81.79,93.2 
	81.81,93.14 81.83,93.08 81.85,93.01 81.87,92.95 81.89,92.89 81.9,92.82 81.91,92.76 81.93,92.7 81.94,92.63 81.94,92.57 
	81.95,92.51 81.95,92.45 81.96,92.39 81.96,92.33 81.96,88.87 81.96,88.81 81.96,88.75 81.95,88.69 81.95,88.62 81.94,88.56 
	81.94,88.5 81.93,88.44 81.91,88.38 81.9,88.31 81.89,88.25 81.87,88.18 81.85,88.12 81.83,88.06 81.81,88 81.79,87.93 81.76,87.87 
	81.74,87.81 81.71,87.74 81.68,87.68 81.65,87.62 81.61,87.56 81.58,87.5 81.54,87.44 81.5,87.38 81.46,87.32 81.42,87.27 
	81.38,87.21 81.33,87.16 81.29,87.1 81.24,87.05 81.19,87 81.14,86.95 81.09,86.9 81.03,86.85 80.98,86.8 80.92,86.76 80.87,86.72 
	80.81,86.67 80.75,86.63 80.69,86.59 80.63,86.56 80.57,86.52 80.51,86.49 80.44,86.46 80.38,86.42 80.32,86.4 80.25,86.37 
	80.19,86.34 80.12,86.32 80.06,86.3 79.99,86.28 79.93,86.26 79.86,86.24 79.8,86.22 79.73,86.21 79.67,86.2 79.6,86.19 
	79.53,86.18 79.47,86.17 79.41,86.16 79.34,86.16 79.28,86.15 79.22,86.15 62.59,86.15 62.58,86.15 62.58,86.15 62.57,86.15 
	62.56,86.15 62.56,86.15 62.55,86.15 62.55,86.16 62.54,86.16 62.53,86.16 62.53,86.16 62.52,86.16 62.51,86.16 62.51,86.16 
	62.5,86.17 62.49,86.17 62.49,86.17 62.48,86.17 62.47,86.18 62.47,86.18 62.46,86.18 62.46,86.19 62.45,86.19 62.44,86.19 
	62.44,86.2 62.43,86.2 62.43,86.2 62.42,86.21 62.41,86.21 62.41,86.22 62.4,86.22 62.4,86.23 62.39,86.23 62.39,86.24 62.38,86.24 
	62.38,86.25 62.37,86.25 62.37,86.26 62.36,86.26 62.36,86.27 62.35,86.28 62.35,86.28 62.35,86.29 62.34,86.29 62.34,86.3 
	62.34,86.31 62.33,86.31 62.33,86.32 62.33,86.32 62.33,86.33 62.32,86.34 62.32,86.34 62.32,86.35 62.32,86.36 62.32,86.36 
	62.32,86.37 62.31,86.37 62.31,86.38 62.31,86.39 62.31,86.39 62.31,86.4 62.31,86.41 62.31,86.41 62.31,86.42 62.31,100.15 
	62.31,100.15 62.31,100.16 62.31,100.17 62.31,100.18 62.31,100.18 62.31,100.19 62.31,100.2 62.3,100.2 62.3,100.21 62.3,100.21 
	62.3,100.22 62.3,100.22 62.29,100.23 62.29,100.24 62.29,100.24 62.29,100.25 62.29,100.26 62.28,100.26 62.28,100.27 
	62.28,100.27 62.27,100.28 62.27,100.29 62.26,100.29 62.26,100.3 62.26,100.3 62.25,100.31 62.25,100.31 62.24,100.32 
	62.24,100.32 62.23,100.33 62.23,100.34 62.22,100.34 62.22,100.35 62.21,100.35 62.21,100.35 62.2,100.36 62.19,100.36 
	62.19,100.37 62.18,100.37 62.18,100.37 62.17,100.38 62.16,100.38 62.16,100.39 62.15,100.39 62.15,100.39 62.14,100.39 
	62.13,100.4 62.13,100.4 62.12,100.4 62.11,100.4 62.11,100.4 62.1,100.41 62.09,100.41 62.09,100.41 62.08,100.41 62.07,100.41 
	62.07,100.41 62.06,100.42 62.05,100.42 62.05,100.42 62.04,100.42 62.04,100.42 58.38,100.42 58.37,100.42 58.37,100.42 
	58.36,100.42 58.35,100.42 58.35,100.42 58.34,100.41 58.33,100.41 58.33,100.41 58.32,100.41 58.32,100.41 58.31,100.41 
	58.3,100.4 58.3,100.4 58.29,100.4 58.28,100.4 58.28,100.4 58.27,100.39 58.26,100.39 58.26,100.39 58.25,100.39 58.24,100.38 
	58.24,100.38 58.23,100.37 58.23,100.37 58.22,100.37 58.21,100.36 58.21,100.36 58.2,100.35 58.2,100.35 58.19,100.35 
	58.19,100.34 58.18,100.34 58.18,100.33 58.17,100.32 58.17,100.32 58.16,100.31 58.16,100.31 58.15,100.3 58.15,100.3 
	58.14,100.29 58.14,100.29 58.14,100.28 58.13,100.27 58.13,100.27 58.13,100.26 58.12,100.26 58.12,100.25 58.12,100.24 
	58.12,100.24 58.11,100.23 58.11,100.22 58.11,100.22 58.11,100.21 58.11,100.21 58.1,100.2 58.1,100.2 58.1,100.19 58.1,100.18 
	58.1,100.18 58.1,100.17 58.1,100.16 58.1,100.15 58.1,100.15 58.1,84.79 58.1,84.73 58.1,84.67 58.11,84.61 58.11,84.55 
	58.12,84.49 58.12,84.42 58.13,84.36 58.15,84.3 58.16,84.24 58.17,84.17 58.19,84.11 58.21,84.05 58.23,83.98 58.25,83.92 
	58.27,83.86 58.3,83.79 58.32,83.73 58.35,83.67 58.38,83.61 58.41,83.55 58.45,83.49 58.48,83.42 58.52,83.37 58.56,83.31 
	58.6,83.25 58.64,83.19 58.68,83.14 58.73,83.08 58.77,83.03 58.82,82.98 58.87,82.92 58.92,82.87 58.97,82.82 59.03,82.78 
	59.08,82.73 59.14,82.68 59.19,82.64 59.25,82.6 59.31,82.56 59.37,82.52 59.43,82.48 59.49,82.45 59.55,82.41 59.62,82.38 
	59.68,82.35 59.74,82.32 59.81,82.29 59.87,82.27 59.94,82.24 60,82.22 60.07,82.2 60.13,82.18 60.2,82.16 60.26,82.15 60.33,82.14 
	60.39,82.12 60.46,82.11 60.52,82.1 60.59,82.09 60.65,82.09 60.72,82.08 60.78,82.08 60.84,82.08 79.15,82.08 79.31,82.08 
	79.47,82.08 79.63,82.09 79.78,82.11 79.95,82.12 80.11,82.14 80.27,82.16 80.43,82.19 80.59,82.22 80.76,82.26 80.92,82.3 
	81.09,82.34 81.25,82.39 81.41,82.44 81.57,82.5 81.74,82.55 81.9,82.62 82.06,82.69 82.22,82.76 82.38,82.84 82.53,82.92 82.69,83 
	82.84,83.09 82.99,83.19 83.14,83.28 83.29,83.38 83.43,83.49 83.58,83.6 83.72,83.71 83.85,83.82 83.99,83.94 84.12,84.07 
	84.24,84.19 84.37,84.32 84.49,84.45 84.6,84.59 84.72,84.73 84.82,84.86 84.93,85.01 85.03,85.15 85.13,85.3 85.22,85.45 
	85.3,85.6 85.39,85.75 85.47,85.9 85.54,86.06 85.61,86.21 85.68,86.37 85.74,86.53 85.8,86.69 85.85,86.84 85.9,87 85.95,87.16 
	85.99,87.32 86.02,87.48 86.06,87.63 86.08,87.79 86.11,87.95 86.13,88.1 86.14,88.26 86.16,88.41 86.17,88.57 86.17,88.72 
	86.17,92.26 86.17,92.42 86.17,92.57 86.16,92.72 86.14,92.87 86.13,93.03 86.11,93.19 86.08,93.34 86.06,93.5 86.02,93.66 
	85.99,93.82 85.95,93.98 85.9,94.13 85.85,94.29 85.8,94.45 85.74,94.61 85.68,94.77 85.61,94.92 85.54,95.08 85.47,95.23 
	85.39,95.38 85.3,95.54 85.22,95.69 85.13,95.84 85.03,95.98 84.93,96.13 84.82,96.27 84.72,96.41 84.6,96.55 84.49,96.68 
	84.37,96.81 84.24,96.94 84.12,97.07 83.99,97.19 83.85,97.31 83.72,97.43 83.58,97.54 83.43,97.65 83.29,97.75 83.14,97.85 
	82.99,97.95 82.84,98.04 82.69,98.13 82.53,98.22 82.38,98.3 82.22,98.37 82.06,98.45 81.9,98.52 81.74,98.58 81.57,98.64 
	81.41,98.7 81.25,98.75 81.09,98.8 80.92,98.84 80.76,98.88 80.59,98.91 80.43,98.94 80.27,98.97 80.11,99 79.95,99.01 79.78,99.03 
	79.63,99.04 79.47,99.05 79.31,99.06 76.91,99.06 76.9,99.06 76.89,99.06 76.89,99.06 76.88,99.06 76.88,99.06 76.87,99.06 
	76.87,99.06 76.86,99.06 76.86,99.06 76.85,99.06 76.85,99.07 76.84,99.07 76.84,99.07 76.83,99.07 76.83,99.07 76.82,99.07 
	76.82,99.08 76.81,99.08 76.81,99.08 76.8,99.08 76.8,99.08 76.79,99.09 76.79,99.09 76.78,99.09 76.78,99.09 76.77,99.09 
	76.77,99.1 76.77,99.1 76.76,99.1 76.76,99.1 76.75,99.11 76.75,99.11 76.74,99.12 76.74,99.12 76.74,99.12 76.73,99.12 
	76.73,99.13 76.72,99.13 76.72,99.13 76.72,99.14 76.71,99.14 76.71,99.14 76.71,99.15 76.7,99.15 76.7,99.15 76.7,99.16 
	76.69,99.16 76.69,99.17 76.69,99.17 76.68,99.18 76.68,99.18 76.68,99.18 76.68,99.19 76.67,99.19 76.67,99.2 76.67,99.2 
	76.67,99.21 76.66,99.21 76.66,99.22 76.65,99.23 76.65,99.24 76.65,99.24 76.65,99.25 76.65,99.25 76.64,99.26 76.64,99.26 
	76.64,99.27 76.64,99.27 76.64,99.28 76.64,99.28 76.64,99.28 76.64,99.29 76.64,99.3 76.64,99.3 76.64,99.31 76.64,99.31 
	76.63,99.32 76.63,99.32 76.63,99.32 76.63,99.33 76.63,99.34 76.63,99.34 76.64,99.35 76.64,99.35 76.64,99.36 76.64,99.36 
	76.64,99.37 76.64,99.37 76.64,99.37 76.64,99.38 76.64,99.38 76.64,99.39 76.64,99.4 76.64,99.4 76.65,99.41 76.65,99.41 
	76.65,99.41 76.65,99.42 76.65,99.43 76.66,99.43 76.66,99.43 76.66,99.44 76.66,99.44 76.66,99.45 76.66,99.45 76.67,99.46 
	76.67,99.46 76.67,99.47 76.68,99.47 76.68,99.47 76.68,99.48 76.68,99.48 76.69,99.49 76.69,99.49 76.69,99.49 76.69,99.5 
	76.7,99.5 76.7,99.51 85.73,108.79 85.74,108.8 85.74,108.8 85.75,108.81 85.75,108.81 85.75,108.82 85.75,108.82 85.76,108.83 
	85.76,108.83 85.76,108.83 85.77,108.84 85.77,108.84 85.77,108.85 85.77,108.85 85.77,108.85 85.78,108.86 85.78,108.86 
	85.78,108.87 85.78,108.87 85.79,108.88 85.79,108.88 85.79,108.89 85.79,108.89 85.79,108.9 85.79,108.9 85.8,108.91 85.8,108.91 
	85.8,108.92 85.8,108.92 85.8,108.93 85.8,108.93 85.8,108.94 85.8,108.94 85.8,108.95 85.8,108.95 85.8,108.96 85.8,108.96 
	85.8,108.97 85.8,108.97 85.8,108.98 85.8,108.98 85.8,108.99 85.8,108.99 85.8,109 85.8,109 85.8,109.01 85.8,109.01 85.8,109.02 
	85.8,109.02 85.8,109.03 85.8,109.03 85.8,109.04 85.8,109.04 85.79,109.05 85.79,109.05 85.79,109.06 85.79,109.06 85.79,109.06 
	85.78,109.07 85.78,109.08 85.78,109.09 85.77,109.1 85.77,109.1 85.77,109.11 85.77,109.11 85.76,109.11 85.76,109.12 
	85.76,109.12 85.75,109.13 85.75,109.13 85.75,109.14 85.74,109.14 85.74,109.14 85.74,109.15 85.73,109.15 85.73,109.15 
	85.73,109.16 85.73,109.16 85.72,109.17 85.72,109.17 85.71,109.17 85.71,109.18 85.71,109.18 85.7,109.18 85.7,109.19 
	85.69,109.19 85.69,109.19 85.69,109.19 85.68,109.2 85.68,109.2 85.67,109.2 85.67,109.21 85.66,109.21 85.66,109.21 85.65,109.21 
	85.65,109.21 85.64,109.22 85.64,109.22 85.64,109.22 85.63,109.22 85.63,109.23 85.62,109.23 85.62,109.23 85.61,109.23 
	85.61,109.23 85.6,109.23 85.6,109.24 85.59,109.24 85.59,109.24 85.58,109.24 85.58,109.24 85.57,109.24 85.57,109.24 
	85.56,109.24 85.56,109.24 85.55,109.24 85.55,109.24 85.54,109.24 85.53,109.24 "/>
</svg>
