<svg xmlns="http://www.w3.org/2000/svg" id="Layer_1" data-name="Layer 1" viewBox="0 0 822.86 512"><defs><style>      .cls-1 {        fill: #5b6b78;      }      .cls-2 {        fill: #f15d5e;      }      .cls-3 {        fill: #95d3d6;      }    </style></defs><g><g><path class="cls-1" d="M543,34.22l-20.72,78.81-28.08,1.58-25.48-79.61,26.84-2.49,10.87,46.43,10.53-46.43,26.04,1.7Z"></path><path class="cls-1" d="M575.39,33.88l-6.23,77.12-23.89,1.25V35.46l30.12-1.59Z"></path><path class="cls-1" d="M649.16,108.73l-28.08,3.62-3.4-12.8h-12.91l-2.83,12.8-28.87-2.83,22.53-75.42,31.48-1.59,22.08,76.21ZM615.64,82.23l-4.3-19.7-4.19,19.7h8.49Z"></path><path class="cls-1" d="M704.99,33.99l-3.17,23.89c-1.1-.3-2.19-.51-3.29-.62-1.09-.11-2.19-.17-3.28-.17-2.79,0-5.46.37-7.99,1.1-2.52.74-4.76,1.86-6.71,3.37-1.95,1.51-3.49,3.4-4.64,5.66-1.15,2.27-1.72,4.93-1.72,7.98,0,1.96.31,3.66.93,5.1.62,1.44,1.5,2.63,2.63,3.57,1.13.94,2.47,1.64,4.02,2.1,1.55.45,3.25.68,5.09.68,1.4,0,2.85-.15,4.36-.45,1.51-.3,3-.7,4.47-1.19,1.48-.49,2.91-1.06,4.31-1.7,1.4-.64,2.68-1.3,3.85-1.98l-2.26,26.61c-1.48.76-3.07,1.43-4.79,2.01-1.72.59-3.48,1.1-5.29,1.53-1.81.43-3.62.76-5.44.99-1.81.23-3.54.34-5.21.34-4.79,0-9.27-.89-13.42-2.66-4.15-1.77-7.76-4.21-10.82-7.3-3.05-3.09-5.46-6.75-7.22-10.96-1.75-4.21-2.63-8.75-2.63-13.62,0-6.45.93-12.54,2.78-18.26,1.85-5.72,4.56-10.73,8.15-15.03,3.58-4.3,8.03-7.7,13.33-10.19,5.3-2.49,11.41-3.74,18.32-3.74,2.6,0,5.27.21,8.01.62,2.74.42,5.27,1.19,7.61,2.32Z"></path><path class="cls-1" d="M542.84,233.26l-28.09,3.62-3.4-12.8h-12.91l-2.83,12.8-28.88-2.83,22.53-75.42,31.48-1.59,22.08,76.21ZM509.32,206.76l-4.3-19.7-4.19,19.7h8.49Z"></path><path class="cls-1" d="M618.13,157.1l-27.29,37.71,22.99,40.09-26.27,4.64-17.21-24.46-.91,25.59-23.55.91,1.81-86.74,26.39,1.47-2.04,25.59,17.55-27.06,28.54,2.26Z"></path><path class="cls-1" d="M681.55,198.21c0,3.43-.4,6.75-1.19,9.94-.79,3.19-1.94,6.18-3.43,8.97-1.49,2.79-3.3,5.35-5.44,7.67-2.13,2.32-4.52,4.31-7.19,5.97-2.66,1.66-5.56,2.95-8.69,3.88-3.13.93-6.46,1.39-9.97,1.39s-6.63-.43-9.71-1.3c-3.07-.87-5.95-2.09-8.63-3.65-2.68-1.56-5.1-3.45-7.27-5.66-2.17-2.21-4.02-4.66-5.55-7.36-1.53-2.7-2.72-5.6-3.57-8.69-.85-3.09-1.27-6.32-1.27-9.68s.4-6.5,1.19-9.65c.79-3.15,1.94-6.12,3.43-8.92,1.49-2.79,3.29-5.36,5.41-7.7,2.11-2.34,4.49-4.36,7.11-6.06,2.62-1.7,5.46-3.02,8.52-3.96,3.05-.94,6.28-1.42,9.68-1.42,5.47,0,10.46.85,14.97,2.55,4.51,1.7,8.36,4.12,11.55,7.28,3.19,3.15,5.66,6.96,7.42,11.44,1.75,4.47,2.63,9.47,2.63,14.98ZM656.41,199.68c0-1.62-.24-3.2-.71-4.73-.48-1.53-1.16-2.89-2.07-4.08-.91-1.19-2.03-2.15-3.37-2.89-1.34-.74-2.88-1.1-4.61-1.1s-3.36.32-4.76.96c-1.4.64-2.59,1.52-3.59,2.63-1,1.11-1.77,2.42-2.29,3.91-.53,1.49-.79,3.07-.79,4.73s.22,3.17.68,4.76c.45,1.58,1.13,3.02,2.04,4.3.91,1.28,2.02,2.32,3.37,3.11,1.34.79,2.9,1.19,4.67,1.19s3.37-.35,4.78-1.05c1.42-.7,2.61-1.64,3.59-2.83.98-1.19,1.74-2.56,2.27-4.1.52-1.55.79-3.15.79-4.81Z"></path><path class="cls-1" d="M548.45,281.58l-4.07,76.78-29.67,2.72-15.85-41.11-2.49,41.9h-25.48l2.04-80.29,28.31-1.36,19.59,40.77.91-38.5,26.72-.91Z"></path><path class="cls-1" d="M585.92,283.05l-6.23,77.12-23.89,1.25v-76.78l30.12-1.58Z"></path><path class="cls-2" d="M639.42,283.27c-3.7,2.15-6.93,4.76-9.68,7.81-2.76,3.06-5.04,6.34-6.85,9.85-1.81,3.51-3.17,7.1-4.07,10.79-.91,3.68-1.36,7.22-1.36,10.62s.36,6.98,1.08,10.76c.71,3.77,1.81,7.5,3.28,11.18,1.47,3.68,3.33,7.21,5.57,10.59,2.25,3.38,4.9,6.39,7.96,9.03l-20.27,8.27c-2.76-1.77-5.21-3.89-7.36-6.34-2.15-2.45-4.04-5.1-5.66-7.96-1.62-2.85-3-5.84-4.11-8.97-1.11-3.13-2.01-6.26-2.71-9.37-.7-3.11-1.21-6.17-1.53-9.17-.32-3-.48-5.82-.48-8.46,0-4.11.56-8.39,1.7-12.83,1.13-4.44,2.8-8.78,5.01-13.02,2.21-4.25,4.95-8.24,8.24-11.97,3.28-3.74,7.09-6.95,11.44-9.63l19.82,8.83Z"></path><path class="cls-2" d="M678.09,292.11l-1.65,19.33c-.89-.25-1.76-.41-2.61-.51-.86-.09-1.73-.14-2.61-.14-2.17,0-4.24.27-6.21.82-1.97.55-3.71,1.39-5.22,2.52-1.51,1.13-2.72,2.56-3.62,4.28-.9,1.73-1.35,3.76-1.35,6.11,0,1.71.25,3.2.76,4.47.5,1.27,1.22,2.32,2.15,3.16.93.84,2.06,1.47,3.39,1.9,1.33.43,2.8.64,4.42.64,1.13,0,2.29-.11,3.48-.34,1.19-.23,2.38-.54,3.57-.94,1.19-.4,2.34-.85,3.44-1.37,1.1-.52,2.12-1.07,3.07-1.65l-.73,21.52c-1.19.61-2.48,1.15-3.85,1.63-1.38.47-2.79.89-4.24,1.24-1.45.35-2.9.62-4.35.8-1.45.18-2.83.27-4.14.27-4.34,0-8.28-.81-11.84-2.43-3.56-1.62-6.61-3.82-9.16-6.62-2.55-2.79-4.52-6.04-5.93-9.73-1.41-3.69-2.1-7.63-2.1-11.81,0-5.01.71-9.68,2.13-14.01,1.42-4.33,3.51-8.1,6.27-11.29,2.76-3.19,6.18-5.69,10.26-7.51,4.07-1.82,8.75-2.73,14.04-2.73,2.11,0,4.24.17,6.41.5,2.17.34,4.24.96,6.23,1.88Z"></path><path class="cls-2" d="M725.3,324.72c0,2.76-.25,5.59-.76,8.49-.51,2.91-1.26,5.82-2.24,8.75-.98,2.93-2.22,5.81-3.71,8.66-1.49,2.85-3.22,5.58-5.18,8.18-1.97,2.6-4.16,5.04-6.6,7.3-2.44,2.26-5.1,4.28-8.01,6.06l-19.7-8.83c3.66-2.19,6.85-4.81,9.57-7.87,2.72-3.06,4.96-6.33,6.71-9.82,1.76-3.49,3.06-7.08,3.94-10.76.87-3.68,1.3-7.22,1.3-10.62s-.35-7.04-1.05-10.81c-.7-3.77-1.76-7.5-3.2-11.18-1.44-3.68-3.25-7.21-5.46-10.59-2.21-3.38-4.83-6.41-7.84-9.09l20.15-8.15c2.75,1.81,5.22,3.96,7.39,6.43,2.17,2.47,4.07,5.13,5.69,7.98,1.62,2.85,3.01,5.83,4.16,8.95,1.15,3.11,2.09,6.23,2.8,9.34.72,3.11,1.24,6.17,1.56,9.17.32,3,.48,5.8.48,8.41Z"></path><path class="cls-1" d="M803.9,281.69l-27.29,37.71,22.99,40.09-26.27,4.64-17.21-24.46-.91,25.59-23.55.91,1.81-86.74,26.39,1.47-2.04,25.59,17.55-27.06,28.54,2.26Z"></path></g><g><circle class="cls-2" cx="129.4" cy="129.16" r="46.15" transform="translate(-1.17 1.18) rotate(-.52)"></circle><path class="cls-2" d="M250.96,161.06c-14.79,17.14-23.77,39.49-23.77,63.87v44.35c-13.97-10.94-31.12-20.1-51.98-24.94-25.38-5.89-50.69-8.8-142.56,1.19-4.23.45-8.27-1.72-10.22-5.49l-4.97-9.67c-1.61-3.12.79-6.76,4.28-6.52,25.62,1.85,106.58,3.41,153.73-44.59.05.03.69.63,1.82,1.74-1.11-1.16-1.72-1.8-1.74-1.85,47.04-46.23,43.95-126.98,41.76-151.62-.26-3.14,3.04-5.36,5.81-3.88l10.41,5.44c3.67,1.93,5.89,5.84,5.71,9.98-2.06,49.66,2.96,89.73,11.73,121.98Z"></path></g><path class="cls-3" d="M324.97,140.35c-46.72,0-84.59,37.88-84.59,84.59v139.5h169.19v-139.5c0-46.72-37.87-84.59-84.59-84.59Z"></path><circle class="cls-3" cx="324.97" cy="66.21" r="50.52"></circle></g><g><path class="cls-1" d="M152.94,415.79v29.48h-5.6l-14.7-17.9v17.9h-6.74v-29.48h5.64l14.66,17.9v-17.9h6.74Z"></path><path class="cls-1" d="M181.11,438.95h-13.69l-2.61,6.32h-6.99l13.14-29.48h6.74l13.18,29.48h-7.16l-2.61-6.32ZM178.97,433.77l-4.67-11.29-4.67,11.29h9.35ZM176.19,407.32h7.08l-7.62,6.07h-5.14l5.69-6.07Z"></path><path class="cls-1" d="M214.51,445.27l-5.69-8.21h-6.28v8.21h-6.82v-29.48h12.76c2.61,0,4.88.44,6.8,1.31,1.92.87,3.4,2.1,4.44,3.71,1.04,1.6,1.56,3.5,1.56,5.69s-.53,4.08-1.58,5.66c-1.05,1.59-2.55,2.8-4.49,3.64l6.61,9.48h-7.33ZM212.78,422.67c-1.07-.89-2.62-1.33-4.67-1.33h-5.56v10.28h5.56c2.05,0,3.61-.45,4.67-1.35,1.07-.9,1.6-2.16,1.6-3.79s-.53-2.93-1.6-3.81Z"></path><path class="cls-1" d="M234.46,443.8c-2.46-1.32-4.38-3.14-5.77-5.46-1.39-2.32-2.09-4.92-2.09-7.81s.69-5.5,2.09-7.81c1.39-2.32,3.31-4.13,5.77-5.45,2.46-1.32,5.21-1.98,8.27-1.98s5.81.66,8.26,1.98c2.44,1.32,4.37,3.14,5.77,5.45,1.4,2.32,2.1,4.92,2.1,7.81s-.7,5.5-2.1,7.81c-1.4,2.32-3.33,4.13-5.77,5.46-2.44,1.32-5.19,1.98-8.26,1.98s-5.82-.66-8.27-1.98ZM247.45,438.76c1.4-.8,2.51-1.92,3.3-3.35.8-1.43,1.2-3.06,1.2-4.89s-.4-3.45-1.2-4.88c-.8-1.43-1.9-2.55-3.3-3.35-1.41-.8-2.98-1.2-4.72-1.2s-3.31.4-4.72,1.2c-1.4.8-2.5,1.92-3.3,3.35-.8,1.43-1.2,3.06-1.2,4.88s.4,3.45,1.2,4.89c.8,1.43,1.9,2.55,3.3,3.35,1.41.8,2.98,1.2,4.72,1.2s3.31-.4,4.72-1.2Z"></path><path class="cls-1" d="M265.77,415.79h13.39c3.2,0,6.03.61,8.48,1.83,2.46,1.22,4.37,2.94,5.73,5.16,1.36,2.22,2.04,4.8,2.04,7.75s-.68,5.53-2.04,7.75c-1.36,2.22-3.27,3.94-5.73,5.16-2.46,1.22-5.28,1.83-8.48,1.83h-13.39v-29.48ZM278.83,439.67c2.95,0,5.3-.82,7.05-2.47s2.63-3.87,2.63-6.68-.88-5.03-2.63-6.68c-1.75-1.64-4.11-2.46-7.05-2.46h-6.23v18.28h6.23Z"></path><path class="cls-1" d="M329.37,415.79v29.48h-5.6l-14.7-17.9v17.9h-6.74v-29.48h5.64l14.66,17.9v-17.9h6.74Z"></path><path class="cls-1" d="M357.54,438.95h-13.69l-2.61,6.32h-6.99l13.14-29.48h6.74l13.18,29.48h-7.16l-2.61-6.32ZM355.4,433.77l-4.67-11.29-4.67,11.29h9.35ZM352.62,407.32h7.08l-7.62,6.07h-5.14l5.69-6.07Z"></path><path class="cls-1" d="M385.84,415.79h6.82v23.92h14.78v5.56h-21.61v-29.48Z"></path><path class="cls-1" d="M413.05,415.79h6.82v29.48h-6.82v-29.48Z"></path><path class="cls-1" d="M455.67,415.79v29.48h-5.6l-14.7-17.9v17.9h-6.74v-29.48h5.64l14.66,17.9v-17.9h6.74Z"></path><path class="cls-1" d="M475.17,433.69l-3.96,4.13v7.45h-6.78v-29.48h6.78v13.77l13.06-13.77h7.58l-12.21,13.14,12.93,16.34h-7.96l-9.43-11.58Z"></path><path class="cls-1" d="M515.48,438.95h-13.69l-2.61,6.32h-6.99l13.14-29.48h6.74l13.18,29.48h-7.16l-2.61-6.32ZM513.34,433.77l-4.67-11.29-4.67,11.29h9.35Z"></path><path class="cls-1" d="M570.82,415.79v29.48h-5.6l-14.7-17.9v17.9h-6.74v-29.48h5.64l14.66,17.9v-17.9h6.74Z"></path><path class="cls-1" d="M599,438.95h-13.69l-2.61,6.32h-6.99l13.14-29.48h6.74l13.18,29.48h-7.16l-2.61-6.32ZM596.85,433.77l-4.67-11.29-4.67,11.29h9.35Z"></path><path class="cls-1" d="M646.86,417.09c1.92.87,3.4,2.1,4.44,3.71,1.04,1.6,1.56,3.5,1.56,5.69s-.52,4.05-1.56,5.66c-1.04,1.62-2.52,2.85-4.44,3.71-1.92.86-4.19,1.28-6.8,1.28h-5.94v8.13h-6.82v-29.48h12.76c2.61,0,4.88.44,6.8,1.31ZM644.36,430.25c1.07-.89,1.6-2.14,1.6-3.77s-.53-2.93-1.6-3.81c-1.07-.89-2.63-1.33-4.67-1.33h-5.56v10.23h5.56c2.05,0,3.61-.44,4.67-1.33Z"></path><path class="cls-1" d="M665.9,443.8c-2.46-1.32-4.38-3.14-5.77-5.46-1.39-2.32-2.09-4.92-2.09-7.81s.69-5.5,2.09-7.81c1.39-2.32,3.31-4.13,5.77-5.45,2.46-1.32,5.21-1.98,8.27-1.98s5.81.66,8.26,1.98c2.44,1.32,4.37,3.14,5.77,5.45,1.4,2.32,2.1,4.92,2.1,7.81s-.7,5.5-2.1,7.81c-1.4,2.32-3.33,4.13-5.77,5.46-2.44,1.32-5.19,1.98-8.26,1.98s-5.82-.66-8.27-1.98ZM678.9,438.76c1.4-.8,2.51-1.92,3.3-3.35.8-1.43,1.2-3.06,1.2-4.89s-.4-3.45-1.2-4.88c-.8-1.43-1.9-2.55-3.3-3.35-1.41-.8-2.98-1.2-4.72-1.2s-3.31.4-4.72,1.2c-1.4.8-2.5,1.92-3.3,3.35-.8,1.43-1.2,3.06-1.2,4.88s.4,3.45,1.2,4.89c.8,1.43,1.9,2.55,3.3,3.35,1.41.8,2.98,1.2,4.72,1.2s3.31-.4,4.72-1.2Z"></path><path class="cls-1" d="M724.05,445.27l-.04-17.69-8.68,14.57h-3.07l-8.64-14.19v17.31h-6.4v-29.48h5.64l11.03,18.32,10.87-18.32h5.6l.08,29.48h-6.4Z"></path><path class="cls-1" d="M745.21,443.8c-2.46-1.32-4.38-3.14-5.77-5.46-1.39-2.32-2.09-4.92-2.09-7.81s.69-5.5,2.09-7.81c1.39-2.32,3.31-4.13,5.77-5.45,2.46-1.32,5.21-1.98,8.27-1.98s5.81.66,8.26,1.98c2.44,1.32,4.37,3.14,5.77,5.45,1.4,2.32,2.1,4.92,2.1,7.81s-.7,5.5-2.1,7.81c-1.4,2.32-3.33,4.13-5.77,5.46-2.44,1.32-5.19,1.98-8.26,1.98s-5.82-.66-8.27-1.98ZM758.2,438.76c1.4-.8,2.51-1.92,3.3-3.35.8-1.43,1.2-3.06,1.2-4.89s-.4-3.45-1.2-4.88c-.8-1.43-1.9-2.55-3.3-3.35-1.41-.8-2.98-1.2-4.72-1.2s-3.31.4-4.72,1.2c-1.4.8-2.5,1.92-3.3,3.35-.8,1.43-1.2,3.06-1.2,4.88s.4,3.45,1.2,4.89c.8,1.43,1.9,2.55,3.3,3.35,1.41.8,2.98,1.2,4.72,1.2s3.31-.4,4.72-1.2Z"></path><path class="cls-1" d="M782.48,443.81c-2.43-1.3-4.34-3.12-5.73-5.43-1.39-2.32-2.09-4.94-2.09-7.86s.69-5.54,2.09-7.85c1.39-2.32,3.3-4.13,5.73-5.43,2.43-1.31,5.16-1.96,8.19-1.96,2.56,0,4.87.45,6.93,1.35,2.06.9,3.8,2.19,5.2,3.87l-4.38,4.04c-1.99-2.3-4.46-3.45-7.41-3.45-1.82,0-3.45.4-4.88,1.2-1.43.8-2.55,1.92-3.35,3.35-.8,1.43-1.2,3.06-1.2,4.88s.4,3.45,1.2,4.89c.8,1.43,1.92,2.55,3.35,3.35,1.43.8,3.06,1.2,4.88,1.2,2.95,0,5.42-1.17,7.41-3.5l4.38,4.04c-1.4,1.71-3.14,3.02-5.22,3.92s-4.4,1.35-6.95,1.35c-3,0-5.72-.65-8.15-1.96Z"></path><path class="cls-1" d="M321.03,466.33h13.39c3.2,0,6.03.61,8.48,1.83,2.46,1.22,4.37,2.94,5.73,5.16,1.36,2.22,2.04,4.8,2.04,7.75s-.68,5.53-2.04,7.75c-1.36,2.22-3.27,3.94-5.73,5.16-2.46,1.22-5.28,1.83-8.48,1.83h-13.39v-29.48ZM334.08,490.21c2.95,0,5.3-.82,7.05-2.47,1.75-1.64,2.63-3.87,2.63-6.68s-.88-5.03-2.63-6.68-4.11-2.46-7.05-2.46h-6.23v18.28h6.23Z"></path><path class="cls-1" d="M380.41,490.34v5.48h-22.83v-29.48h22.28v5.48h-15.5v6.4h13.69v5.31h-13.69v6.82h16.05Z"></path><path class="cls-1" d="M393.72,471.89h-9.43v-5.56h25.69v5.56h-9.44v23.92h-6.82v-23.92ZM405.6,457.86l-5.56,6.07h-5.81l-5.56-6.07h4.8l3.66,3.16,3.67-3.16h4.8Z"></path><path class="cls-1" d="M420.99,494.34c-2.46-1.32-4.38-3.14-5.77-5.46-1.39-2.32-2.09-4.92-2.09-7.81s.69-5.5,2.09-7.81c1.39-2.32,3.31-4.13,5.77-5.45,2.46-1.32,5.21-1.98,8.27-1.98s5.81.66,8.26,1.98c2.44,1.32,4.37,3.14,5.77,5.45,1.4,2.32,2.1,4.92,2.1,7.81s-.7,5.5-2.1,7.81c-1.4,2.32-3.33,4.13-5.77,5.46-2.44,1.32-5.19,1.98-8.26,1.98s-5.82-.66-8.27-1.98ZM433.99,489.3c1.4-.8,2.51-1.92,3.3-3.35.8-1.43,1.2-3.06,1.2-4.89s-.4-3.45-1.2-4.88c-.8-1.43-1.9-2.55-3.3-3.35-1.41-.8-2.98-1.2-4.72-1.2s-3.31.4-4.72,1.2c-1.4.8-2.5,1.92-3.3,3.35-.8,1.43-1.2,3.06-1.2,4.88s.4,3.45,1.2,4.89c.8,1.43,1.9,2.55,3.3,3.35,1.41.8,2.98,1.2,4.72,1.2s3.31-.4,4.72-1.2Z"></path><path class="cls-1" d="M479.14,495.81l-.04-17.69-8.68,14.57h-3.07l-8.63-14.19v17.31h-6.4v-29.48h5.64l11.03,18.32,10.87-18.32h5.6l.08,29.48h-6.4Z"></path><path class="cls-1" d="M536.33,466.33l-12.76,29.48h-6.74l-12.72-29.48h7.37l8.97,21.06,9.1-21.06h6.78Z"></path><path class="cls-1" d="M560.86,494.34c-2.46-1.32-4.38-3.14-5.77-5.46-1.39-2.32-2.09-4.92-2.09-7.81s.69-5.5,2.09-7.81c1.39-2.32,3.31-4.13,5.77-5.45,2.46-1.32,5.21-1.98,8.27-1.98s5.81.66,8.26,1.98c2.44,1.32,4.37,3.14,5.77,5.45,1.4,2.32,2.1,4.92,2.1,7.81s-.7,5.5-2.1,7.81c-1.4,2.32-3.33,4.13-5.77,5.46-2.44,1.32-5.19,1.98-8.26,1.98s-5.82-.66-8.27-1.98ZM573.85,489.3c1.4-.8,2.51-1.92,3.3-3.35.8-1.43,1.2-3.06,1.2-4.89s-.4-3.45-1.2-4.88c-.8-1.43-1.9-2.55-3.3-3.35-1.41-.8-2.98-1.2-4.72-1.2s-3.31.4-4.72,1.2c-1.4.8-2.5,1.92-3.3,3.35s-1.2,3.06-1.2,4.88.4,3.45,1.2,4.89c.8,1.43,1.9,2.55,3.3,3.35,1.41.8,2.98,1.2,4.72,1.2s3.31-.4,4.72-1.2Z"></path><path class="cls-1" d="M619.21,466.33v29.48h-6.82v-12.09h-13.39v12.09h-6.82v-29.48h6.82v11.63h13.39v-11.63h6.82Z"></path><path class="cls-1" d="M646.76,495.81l-5.69-8.21h-6.28v8.21h-6.82v-29.48h12.76c2.61,0,4.88.44,6.8,1.31,1.92.87,3.4,2.1,4.44,3.71,1.04,1.6,1.56,3.5,1.56,5.69s-.53,4.08-1.58,5.66c-1.05,1.59-2.55,2.8-4.49,3.64l6.61,9.48h-7.33ZM645.03,473.22c-1.07-.89-2.63-1.33-4.67-1.33h-5.56v10.28h5.56c2.05,0,3.61-.45,4.67-1.35,1.07-.9,1.6-2.16,1.6-3.79s-.53-2.93-1.6-3.81Z"></path><path class="cls-1" d="M666.7,494.34c-2.46-1.32-4.38-3.14-5.77-5.46-1.39-2.32-2.09-4.92-2.09-7.81s.69-5.5,2.09-7.81c1.39-2.32,3.31-4.13,5.77-5.45,2.46-1.32,5.21-1.98,8.27-1.98s5.81.66,8.26,1.98c2.44,1.32,4.37,3.14,5.77,5.45,1.4,2.32,2.1,4.92,2.1,7.81s-.7,5.5-2.1,7.81c-1.4,2.32-3.33,4.13-5.77,5.46-2.44,1.32-5.19,1.98-8.26,1.98s-5.82-.66-8.27-1.98ZM679.69,489.3c1.4-.8,2.51-1.92,3.3-3.35.8-1.43,1.2-3.06,1.2-4.89s-.4-3.45-1.2-4.88c-.8-1.43-1.9-2.55-3.3-3.35-1.41-.8-2.98-1.2-4.72-1.2s-3.31.4-4.72,1.2c-1.4.8-2.5,1.92-3.3,3.35-.8,1.43-1.2,3.06-1.2,4.88s.4,3.45,1.2,4.89c.8,1.43,1.9,2.55,3.3,3.35,1.41.8,2.98,1.2,4.72,1.2s3.31-.4,4.72-1.2Z"></path><path class="cls-1" d="M721.6,490.25v5.56h-25.77v-4.42l16.17-19.5h-15.84v-5.56h24.81v4.42l-16.13,19.5h16.76Z"></path><path class="cls-1" d="M750.58,490.34v5.48h-22.83v-29.48h22.28v5.48h-15.5v6.4h13.69v5.31h-13.69v6.82h16.05Z"></path><path class="cls-1" d="M784.82,466.33v29.48h-5.6l-14.7-17.9v17.9h-6.74v-29.48h5.64l14.66,17.9v-17.9h6.74Z"></path><path class="cls-1" d="M798.85,457.86h7.07l-7.62,6.07h-5.14l5.69-6.07ZM793.58,466.33h6.82v29.48h-6.82v-29.48Z"></path></g></svg>