<svg version="1.1" id="Layer_1" xmlns="http://www.w3.org/2000/svg" xmlns:xlink="http://www.w3.org/1999/xlink" x="0px" y="0px"
	 width="100%" viewBox="0 0 1080 1080" enable-background="new 0 0 1080 1080" xml:space="preserve">
<path fill="#000000" opacity="1.000000" stroke="none" 
	d="
M0.999996,494.000000 
	C1.000000,329.737549 1.000000,165.475128 1.000000,1.000000 
	C165.024841,1.000000 329.049774,1.000000 493.696960,1.412808 
	C493.139832,2.213873 491.985260,2.817627 490.777130,2.957091 
	C478.552734,4.368261 466.203918,5.056154 454.116699,7.215899 
	C437.121155,10.252658 420.215698,13.953409 403.454468,18.107540 
	C371.556244,26.013250 340.843384,37.426460 311.157532,51.461441 
	C280.635132,65.891922 251.615387,82.885109 224.273941,102.816986 
	C204.574295,117.178040 185.777985,132.555756 168.216522,149.406937 
	C158.158859,159.057800 148.474136,169.137741 139.143784,179.494980 
	C129.463196,190.240997 119.817307,201.114853 111.237022,212.731110 
	C100.383888,227.424438 90.476723,242.828186 80.424316,258.098511 
	C65.169426,281.271820 53.094982,306.173065 42.287575,331.623291 
	C30.942341,358.339996 21.811573,385.881317 15.406579,414.241425 
	C12.389371,427.601044 9.361807,440.986359 7.161411,454.494049 
	C5.185659,466.622681 4.374820,478.939331 2.917706,491.157288 
	C2.797317,492.166748 1.663133,493.055267 0.999996,494.000000 
z"/>
<path fill="#000000" opacity="1.000000" stroke="none" 
	d="
M588.000000,0.999999 
	C752.262451,1.000000 916.524902,1.000000 1081.000000,1.000000 
	C1081.000000,165.024841 1081.000000,329.049774 1080.587158,493.697021 
	C1079.786011,493.139771 1079.182129,491.985077 1079.042725,490.776794 
	C1077.631592,478.552399 1076.943848,466.203522 1074.784180,454.116364 
	C1071.747314,437.120789 1068.046265,420.215393 1063.892334,403.454071 
	C1055.986938,371.555786 1044.572876,340.843170 1030.538208,311.157227 
	C1016.108032,280.634705 999.114624,251.615067 979.182800,224.273682 
	C964.821716,204.574051 949.444092,185.777695 932.592896,168.216293 
	C922.942017,158.158661 912.862061,148.473953 902.504822,139.143570 
	C891.758850,129.463043 880.884888,119.817169 869.268616,111.236908 
	C854.575378,100.383728 839.171753,90.476418 823.901367,80.424156 
	C800.727966,65.169418 775.826843,53.094864 750.376587,42.287533 
	C723.659912,30.942404 696.118652,21.811510 667.758545,15.406550 
	C654.398926,12.389369 641.013550,9.361801 627.505920,7.161405 
	C615.377319,5.185653 603.060669,4.374807 590.842712,2.917707 
	C589.833313,2.797325 588.944702,1.663139 588.000000,0.999999 
z"/>
<path fill="#000000" opacity="1.000000" stroke="none" 
	d="
M494.000000,1081.000000 
	C329.737579,1081.000000 165.475159,1081.000000 1.000000,1081.000000 
	C1.000000,916.975159 1.000000,752.950256 1.412788,588.302979 
	C2.213846,588.860229 2.817611,590.014893 2.957085,591.223145 
	C4.368265,603.447571 5.056179,615.796326 7.215925,627.883545 
	C10.252690,644.879089 13.953431,661.784546 18.107544,678.545776 
	C26.013218,710.443970 37.426750,741.156677 51.461578,770.842590 
	C65.891899,801.365051 82.885239,830.384705 102.817039,857.726135 
	C117.178032,877.425842 132.555847,896.222046 149.406998,913.783508 
	C159.057968,923.841125 169.137817,933.525940 179.495071,942.856323 
	C190.241104,952.536865 201.114960,962.182739 212.731216,970.763000 
	C227.424500,981.616089 242.828186,991.523315 258.098480,1001.575623 
	C281.271759,1016.830505 306.172974,1028.905151 331.623199,1039.712524 
	C358.339996,1051.057617 385.881378,1060.188354 414.241516,1066.593262 
	C427.601135,1069.610474 440.986481,1072.638184 454.494141,1074.838501 
	C466.622742,1076.814331 478.939484,1077.625000 491.157379,1079.082275 
	C492.166809,1079.202515 493.055298,1080.336792 494.000000,1081.000000 
z"/>
<path fill="#000000" opacity="1.000000" stroke="none" 
	d="
M1081.000000,588.000000 
	C1081.000000,752.262390 1081.000000,916.524841 1081.000000,1081.000000 
	C916.975159,1081.000000 752.950256,1081.000000 588.302979,1080.587280 
	C588.860168,1079.786255 590.014709,1079.182251 591.222900,1079.042725 
	C603.447266,1077.631470 615.796082,1076.943970 627.883301,1074.784058 
	C644.878845,1071.747314 661.784180,1068.046509 678.545471,1063.892456 
	C710.443726,1055.986938 741.156616,1044.573486 770.842529,1030.538574 
	C801.364929,1016.108215 830.384583,999.114868 857.725952,979.182922 
	C877.425659,964.821899 896.221985,949.444214 913.783447,932.593018 
	C923.841064,922.942078 933.525818,912.862122 942.856262,902.504883 
	C952.536865,891.758911 962.182739,880.885071 970.763062,869.268799 
	C981.616272,854.575500 991.523376,839.171753 1001.575745,823.901367 
	C1016.830505,800.728088 1028.905151,775.826965 1039.712524,750.376709 
	C1051.057739,723.659973 1060.188477,696.118591 1066.593262,667.758484 
	C1069.610596,654.398865 1072.638184,641.013550 1074.838745,627.505859 
	C1076.814453,615.377258 1077.625000,603.060608 1079.082153,590.842651 
	C1079.202515,589.833191 1080.336792,588.944702 1081.000000,588.000000 
z"/>
<path fill="#AD8F54" opacity="1.000000" stroke="none" 
	d="
M1081.000000,587.531372 
	C1080.336792,588.944702 1079.202515,589.833191 1079.082153,590.842651 
	C1077.625000,603.060608 1076.814453,615.377258 1074.838745,627.505859 
	C1072.638184,641.013550 1069.610596,654.398865 1066.593262,667.758484 
	C1060.188477,696.118591 1051.057739,723.659973 1039.712524,750.376709 
	C1028.905151,775.826965 1016.830505,800.728088 1001.575745,823.901367 
	C991.523376,839.171753 981.616272,854.575500 970.763062,869.268799 
	C962.182739,880.885071 952.536865,891.758911 942.856262,902.504883 
	C933.525818,912.862122 923.841064,922.942078 913.783447,932.593018 
	C896.221985,949.444214 877.425659,964.821899 857.725952,979.182922 
	C830.384583,999.114868 801.364929,1016.108215 770.842529,1030.538574 
	C741.156616,1044.573486 710.443726,1055.986938 678.545471,1063.892456 
	C661.784180,1068.046509 644.878845,1071.747314 627.883301,1074.784058 
	C615.796082,1076.943970 603.447266,1077.631470 591.222900,1079.042725 
	C590.014709,1079.182251 588.860168,1079.786255 587.840332,1080.587280 
	C556.979126,1081.000000 525.958191,1081.000000 494.468658,1081.000000 
	C493.055298,1080.336792 492.166809,1079.202515 491.157379,1079.082275 
	C478.939484,1077.625000 466.622742,1076.814331 454.494141,1074.838501 
	C440.986481,1072.638184 427.601135,1069.610474 414.241516,1066.593262 
	C385.881378,1060.188354 358.339996,1051.057617 331.623199,1039.712524 
	C306.172974,1028.905151 281.271759,1016.830505 258.098480,1001.575623 
	C242.828186,991.523315 227.424500,981.616089 212.731216,970.763000 
	C201.114960,962.182739 190.241104,952.536865 179.495071,942.856323 
	C169.137817,933.525940 159.057968,923.841125 149.406998,913.783508 
	C132.555847,896.222046 117.178032,877.425842 102.817039,857.726135 
	C82.885239,830.384705 65.891899,801.365051 51.461578,770.842590 
	C37.426750,741.156677 26.013218,710.443970 18.107544,678.545776 
	C13.953431,661.784546 10.252690,644.879089 7.215925,627.883545 
	C5.056179,615.796326 4.368265,603.447571 2.957085,591.223145 
	C2.817611,590.014893 2.213846,588.860229 1.412788,587.840332 
	C1.000000,556.979126 1.000000,525.958191 0.999996,494.468658 
	C1.663133,493.055267 2.797317,492.166748 2.917706,491.157288 
	C4.374820,478.939331 5.185659,466.622681 7.161411,454.494049 
	C9.361807,440.986359 12.389371,427.601044 15.406579,414.241425 
	C21.811573,385.881317 30.942341,358.339996 42.287575,331.623291 
	C53.094982,306.173065 65.169426,281.271820 80.424316,258.098511 
	C90.476723,242.828186 100.383888,227.424438 111.237022,212.731110 
	C119.817307,201.114853 129.463196,190.240997 139.143784,179.494980 
	C148.474136,169.137741 158.158859,159.057800 168.216522,149.406937 
	C185.777985,132.555756 204.574295,117.178040 224.273941,102.816986 
	C251.615387,82.885109 280.635132,65.891922 311.157532,51.461441 
	C340.843384,37.426460 371.556244,26.013250 403.454468,18.107540 
	C420.215698,13.953409 437.121155,10.252658 454.116699,7.215899 
	C466.203918,5.056154 478.552734,4.368261 490.777130,2.957091 
	C491.985260,2.817627 493.139832,2.213873 494.159607,1.412808 
	C525.020874,1.000000 556.041809,1.000000 587.531372,0.999999 
	C588.944702,1.663139 589.833313,2.797325 590.842712,2.917707 
	C603.060669,4.374807 615.377319,5.185653 627.505920,7.161405 
	C641.013550,9.361801 654.398926,12.389369 667.758545,15.406550 
	C696.118652,21.811510 723.659912,30.942404 750.376587,42.287533 
	C775.826843,53.094864 800.727966,65.169418 823.901367,80.424156 
	C839.171753,90.476418 854.575378,100.383728 869.268616,111.236908 
	C880.884888,119.817169 891.758850,129.463043 902.504822,139.143570 
	C912.862061,148.473953 922.942017,158.158661 932.592896,168.216293 
	C949.444092,185.777695 964.821716,204.574051 979.182800,224.273682 
	C999.114624,251.615067 1016.108032,280.634705 1030.538208,311.157227 
	C1044.572876,340.843170 1055.986938,371.555786 1063.892334,403.454071 
	C1068.046265,420.215393 1071.747314,437.120789 1074.784180,454.116364 
	C1076.943848,466.203522 1077.631592,478.552399 1079.042725,490.776794 
	C1079.182129,491.985077 1079.786011,493.139771 1080.587158,494.159668 
	C1081.000000,525.020874 1081.000000,556.041809 1081.000000,587.531372 
M833.399658,93.043968 
	C791.286377,65.597862 746.260864,44.324692 698.172974,29.667887 
	C668.860657,20.733747 639.145447,13.562137 608.495667,10.946932 
	C590.041687,9.372346 571.604614,6.718163 553.133423,6.462041 
	C532.442688,6.175142 511.680603,7.523063 491.027222,9.147118 
	C474.352997,10.458268 457.607697,12.288512 441.213745,15.514084 
	C314.884308,40.369869 210.246902,102.298866 128.027084,201.333130 
	C67.040970,274.791199 29.142988,359.125702 13.335534,453.271637 
	C9.245594,477.630463 5.848687,502.148254 6.243880,526.948364 
	C6.566024,547.164185 6.603726,567.437927 8.257094,587.563660 
	C9.788651,606.206604 12.414124,624.862915 16.073965,643.210999 
	C41.017296,768.260681 102.709480,871.770081 200.559937,953.338623 
	C274.164948,1014.696045 358.761261,1052.880493 453.286499,1068.591553 
	C474.132812,1072.056519 495.255493,1074.869019 516.336609,1075.640991 
	C539.659241,1076.494995 563.131592,1075.394531 586.441895,1073.761841 
	C604.623779,1072.488281 622.790039,1069.817993 640.731567,1066.511475 
	C692.321289,1057.003906 741.552979,1040.200073 787.836426,1015.479858 
	C914.278320,947.946716 1001.286560,846.435852 1048.167236,710.902039 
	C1061.693848,671.796082 1070.470215,631.560913 1073.032715,590.115234 
	C1073.859741,576.738525 1075.725708,563.367371 1075.619141,550.005615 
	C1075.464844,530.629883 1074.459351,511.222931 1072.863159,491.908081 
	C1071.457520,474.900146 1069.519775,457.858704 1066.459229,441.079712 
	C1057.714966,393.140839 1042.207642,347.340546 1020.447937,303.741241 
	C977.143066,216.972321 914.768188,147.036545 833.399658,93.043968 
z"/>
<path fill="#1A1A1A" opacity="1.000000" stroke="none" 
	d="
M833.703308,93.240593 
	C914.768188,147.036545 977.143066,216.972321 1020.447937,303.741241 
	C1042.207642,347.340546 1057.714966,393.140839 1066.459229,441.079712 
	C1069.519775,457.858704 1071.457520,474.900146 1072.863159,491.908081 
	C1074.459351,511.222931 1075.464844,530.629883 1075.619141,550.005615 
	C1075.725708,563.367371 1073.859741,576.738525 1073.032715,590.115234 
	C1070.470215,631.560913 1061.693848,671.796082 1048.167236,710.902039 
	C1001.286560,846.435852 914.278320,947.946716 787.836426,1015.479858 
	C741.552979,1040.200073 692.321289,1057.003906 640.731567,1066.511475 
	C622.790039,1069.817993 604.623779,1072.488281 586.441895,1073.761841 
	C563.131592,1075.394531 539.659241,1076.494995 516.336609,1075.640991 
	C495.255493,1074.869019 474.132812,1072.056519 453.286499,1068.591553 
	C358.761261,1052.880493 274.164948,1014.696045 200.559937,953.338623 
	C102.709480,871.770081 41.017296,768.260681 16.073965,643.210999 
	C12.414124,624.862915 9.788651,606.206604 8.257094,587.563660 
	C6.603726,567.437927 6.566024,547.164185 6.243880,526.948364 
	C5.848687,502.148254 9.245594,477.630463 13.335534,453.271637 
	C29.142988,359.125702 67.040970,274.791199 128.027084,201.333130 
	C210.246902,102.298866 314.884308,40.369869 441.213745,15.514084 
	C457.607697,12.288512 474.352997,10.458268 491.027222,9.147118 
	C511.680603,7.523063 532.442688,6.175142 553.133423,6.462041 
	C571.604614,6.718163 590.041687,9.372346 608.495667,10.946932 
	C639.145447,13.562137 668.860657,20.733747 698.172974,29.667887 
	C746.260864,44.324692 791.286377,65.597862 833.703308,93.240593 
M352.031555,711.532776 
	C337.766235,756.216492 323.500916,800.900208 309.235565,845.583923 
	C309.773407,845.885315 310.311249,846.186707 310.849091,846.488159 
	C312.910583,844.446106 314.956604,842.388123 317.035767,840.364258 
	C386.522736,772.724792 469.416779,735.369934 566.465820,730.220886 
	C590.739685,728.932922 614.949890,730.626709 638.932312,734.325928 
	C683.770386,741.242004 726.199646,755.568054 765.760986,777.856140 
	C774.569824,782.818909 778.598267,780.646423 783.679138,774.579773 
	C811.383789,741.499512 839.136902,708.459778 866.862244,675.396790 
	C872.179932,669.055176 871.418091,663.259338 865.104187,657.765930 
	C855.181213,649.132263 845.051880,640.678162 835.724976,631.427185 
	C794.378052,590.416687 764.027100,542.368652 744.800781,487.363342 
	C737.684937,467.005219 724.675720,451.739929 705.207947,442.552521 
	C666.072021,424.083099 627.194824,404.962799 587.402344,388.008820 
	C509.925140,354.998932 431.998535,323.033386 354.046539,291.152527 
	C308.459595,272.508331 262.466034,254.858307 216.642441,236.793869 
	C215.179794,236.217270 213.574570,236.002304 212.035828,235.618729 
	C211.883957,236.088257 211.732086,236.557770 211.580215,237.027283 
	C213.080292,237.947266 214.628952,238.797195 216.072937,239.798111 
	C230.562439,249.841690 245.754517,259.030701 259.354889,270.163269 
	C284.026489,290.358154 303.367523,315.523804 321.607361,341.492554 
	C335.055695,360.639374 349.861267,378.570770 367.316620,394.263000 
	C399.358215,423.068146 435.835297,445.136475 474.942383,462.460968 
	C509.754425,477.882690 545.543579,491.113617 581.001038,505.058258 
	C602.522522,513.522156 624.101624,521.875671 645.892029,529.610596 
	C673.308289,539.342529 694.836365,556.179016 710.470581,580.634827 
	C711.597534,582.397644 712.450928,584.335327 714.049072,587.360596 
	C709.636230,587.566345 706.244751,588.037659 702.899475,587.815002 
	C696.004211,587.356018 689.143555,586.102661 682.250671,585.940002 
	C668.889465,585.624756 656.323242,582.802856 644.777466,575.912170 
	C636.626221,571.047302 628.356995,566.371094 620.327148,561.314331 
	C610.480469,555.113525 599.671143,553.632812 588.601990,555.355164 
	C528.561523,564.697510 468.580475,574.421631 408.544220,583.791748 
	C397.210205,585.560791 390.356354,591.463013 386.924072,602.335327 
	C375.500427,638.521667 363.824890,674.628540 352.031555,711.532776 
z"/>
<path fill="#B09155" opacity="1.000000" stroke="none" 
	d="
M352.138733,711.149353 
	C363.824890,674.628540 375.500427,638.521667 386.924072,602.335327 
	C390.356354,591.463013 397.210205,585.560791 408.544220,583.791748 
	C468.580475,574.421631 528.561523,564.697510 588.601990,555.355164 
	C599.671143,553.632812 610.480469,555.113525 620.327148,561.314331 
	C628.356995,566.371094 636.626221,571.047302 644.777466,575.912170 
	C656.323242,582.802856 668.889465,585.624756 682.250671,585.940002 
	C689.143555,586.102661 696.004211,587.356018 702.899475,587.815002 
	C706.244751,588.037659 709.636230,587.566345 714.049072,587.360596 
	C712.450928,584.335327 711.597534,582.397644 710.470581,580.634827 
	C694.836365,556.179016 673.308289,539.342529 645.892029,529.610596 
	C624.101624,521.875671 602.522522,513.522156 581.001038,505.058258 
	C545.543579,491.113617 509.754425,477.882690 474.942383,462.460968 
	C435.835297,445.136475 399.358215,423.068146 367.316620,394.263000 
	C349.861267,378.570770 335.055695,360.639374 321.607361,341.492554 
	C303.367523,315.523804 284.026489,290.358154 259.354889,270.163269 
	C245.754517,259.030701 230.562439,249.841690 216.072937,239.798111 
	C214.628952,238.797195 213.080292,237.947266 211.580215,237.027283 
	C211.732086,236.557770 211.883957,236.088257 212.035828,235.618729 
	C213.574570,236.002304 215.179794,236.217270 216.642441,236.793869 
	C262.466034,254.858307 308.459595,272.508331 354.046539,291.152527 
	C431.998535,323.033386 509.925140,354.998932 587.402344,388.008820 
	C627.194824,404.962799 666.072021,424.083099 705.207947,442.552521 
	C724.675720,451.739929 737.684937,467.005219 744.800781,487.363342 
	C764.027100,542.368652 794.378052,590.416687 835.724976,631.427185 
	C845.051880,640.678162 855.181213,649.132263 865.104187,657.765930 
	C871.418091,663.259338 872.179932,669.055176 866.862244,675.396790 
	C839.136902,708.459778 811.383789,741.499512 783.679138,774.579773 
	C778.598267,780.646423 774.569824,782.818909 765.760986,777.856140 
	C726.199646,755.568054 683.770386,741.242004 638.932312,734.325928 
	C614.949890,730.626709 590.739685,728.932922 566.465820,730.220886 
	C469.416779,735.369934 386.522736,772.724792 317.035767,840.364258 
	C314.956604,842.388123 312.910583,844.446106 310.849091,846.488159 
	C310.311249,846.186707 309.773407,845.885315 309.235565,845.583923 
	C323.500916,800.900208 337.766235,756.216492 352.138733,711.149353 
z"/>
</svg>