<svg width="565" height="286" viewBox="0 0 565 286" fill="none" xmlns="http://www.w3.org/2000/svg">
<path d="M19.4673 243.875C19.4673 243.875 4.40955 209.956 41.8021 194.192C65.2367 184.313 77.1185 154.686 81.2709 141.316C85.4234 127.945 88.178 93.9022 123.864 89.548C153.096 85.9743 189.08 45.2154 189.08 45.2154C189.08 45.2154 216.554 -5.60731 273.835 15.6809C331.117 36.9692 345.712 -3.88207 385.396 3.22429C437.97 12.6515 408.184 50.6376 485.651 77.954C534.987 95.3502 494.234 156.083 529.694 184.19C564.928 212.122 545.554 244.799 545.554 244.799" fill="#F1F2F3"/>
<path d="M183.006 244.163H565" stroke="#253238" stroke-width="0.7002" stroke-miterlimit="10"/>
<path d="M253.125 198.854C253.125 198.854 220.399 212.307 214.273 250.478C212.155 263.695 211.22 258.519 217.151 254.935C223.081 251.351 248.14 244.614 257.606 237.077C267.073 229.539 278.482 211.784 278.482 211.784C278.482 211.784 265.356 207.008 260.998 204.831C256.517 202.582 253.125 198.854 253.125 198.854Z" fill="#EFAF1E"/>
<path d="M245.211 184.2C245.211 184.2 219.412 185.782 206.164 210.726C201.579 219.362 202.114 217.329 207.058 216.251C212.002 215.172 230.965 214.659 239.291 211.681C247.616 208.703 259.693 199.121 259.693 199.121C259.693 199.121 251.748 192.724 249.25 190.187C246.681 187.579 245.211 184.2 245.211 184.2Z" fill="#EFAF1E"/>
<path d="M259.107 205.797C259.107 205.797 237.265 220.123 229.947 236.379" stroke="white" stroke-width="0.7002" stroke-miterlimit="10"/>
<path d="M139.611 207.912C139.611 207.912 129.877 202.038 123.998 197.622C109.413 186.654 100.43 171.179 100.43 171.179C124.224 167.882 149.159 184.816 149.159 184.816C149.159 184.816 150.393 190.372 150.711 190.844C151.04 191.317 154.586 193.874 155.357 194.028C156.128 194.182 160.928 196.143 159.499 196.965C158.071 197.786 140.155 207.624 140.155 207.624" fill="#EFAF1E"/>
<path d="M132.498 201.043C106.977 212.431 91.5902 202.028 88.2806 199.112C83.4498 194.84 82.1855 191.379 82.1855 191.379C82.1855 191.379 89.3907 192.971 96.678 188.555C105.003 183.513 114.665 180.771 114.665 180.771C114.665 180.771 119.342 179.487 120.02 180.186C120.698 180.884 135.088 186.46 132.858 187.908C130.627 189.356 130.792 190.404 130.792 190.404C130.792 190.404 134.811 189.931 133.69 190.845C132.57 191.739 132.498 201.043 132.498 201.043Z" fill="#EFAF1E"/>
<path d="M74.1376 211.918L146.333 179.045L178.874 161.403C178.874 161.403 205.145 152.715 205.772 152.582C206.399 152.448 230.81 141.203 230.81 141.203L247.821 188.75L85.6391 243.588L82.1959 241.38C75.6383 233.853 69.5946 229.899 74.1376 211.918Z" fill="white"/>
<path d="M82.1953 240.702C82.1953 240.702 183.005 198.854 235.599 168.016C235.599 168.016 237.48 173.582 246.042 188.616L85.6386 243.598C85.6386 243.598 84.6827 243.731 82.1953 240.702Z" fill="#253238"/>
<path d="M403.989 209.597C403.989 209.597 409.026 208.231 410.907 228.821C411.945 240.199 427.146 253.734 427.146 253.734C427.146 253.734 399.816 259.721 385.067 231.337C376.413 214.68 383.618 233.185 384.06 222.557C384.389 214.506 392.94 217.114 392.94 217.114C392.94 217.114 395.602 211.866 399.241 213.448C405.562 216.19 403.989 209.597 403.989 209.597Z" fill="#EFAF1E"/>
<path d="M349.115 12.7751C285.512 9.88941 231.613 59.0588 228.724 122.605C225.836 186.152 275.049 240.004 338.651 242.89C402.254 245.775 456.153 196.606 459.041 133.059C461.929 69.513 412.717 15.6608 349.115 12.7751ZM441.311 132.258C438.865 186.018 393.27 227.619 339.463 225.175C285.656 222.731 244.019 177.176 246.465 123.417C248.911 69.6567 294.506 28.0558 348.313 30.4999C402.12 32.9337 443.757 78.4986 441.311 132.258Z" fill="white"/>
<path d="M144.852 223.481L145.808 224.672L146.168 229.17C146.168 229.17 145.644 231.881 133.947 234.602C129.27 235.691 128.715 239.326 133.371 242.048C134.738 242.849 137.174 243.516 138.88 243.136C140.587 242.756 155.696 238.494 156.518 237.139C157.34 235.783 157.104 232.168 156.796 231.275C156.117 229.293 154.668 228.831 154.236 228.841C153.805 228.862 153.825 229.067 153.681 228.841C153.537 228.615 153.527 225.904 153.527 225.904C153.527 225.904 154.678 225.36 154.76 224.004C154.843 222.649 155.295 220.061 155.295 220.061C155.295 220.061 154.689 190.393 154.575 188.082C154.473 185.772 153.948 175.862 153.948 175.862C153.948 175.862 164.381 170.881 166.005 169.957C167.629 169.033 171.072 166.558 171.072 166.558C171.072 166.558 170.784 168.396 170.373 170.388C169.962 172.381 167.906 180.237 168.061 184.19C168.215 188.144 168.318 197.52 168.287 198.465C168.256 199.409 169.006 217.586 169.088 219.178C169.171 220.77 170.815 241.544 171.453 243.721C172.09 245.899 172.881 246.658 173.734 247.121V251.67C173.734 251.67 163.98 253.939 162.51 255.233C161.051 256.527 158.183 257.862 157.875 259.3C157.577 260.748 158.152 261.066 161.565 261.364C164.977 261.652 171.843 261.641 173.58 261.159C175.327 260.676 182.491 260.44 183.036 259.043C183.581 257.647 183.601 255.716 183.098 254.237C182.594 252.758 181.515 251.68 181.104 251.536C180.682 251.393 180.785 250.93 180.785 250.93L181.381 246.217L182.831 245.529L185.822 221.098L187.836 206.608L189.532 190.783L191.094 187.22L198.392 174.167C198.392 174.167 206.82 158.907 207.838 156.771C208.855 154.635 213.018 142.517 213.018 137.711C213.018 137.711 221.703 127.966 224.293 123.324C226.894 118.682 229.402 113.805 229.751 111.494C230.101 109.183 231.786 100.516 231.951 98.5032C232.126 96.5007 232.578 86.7346 232.526 84.2084C232.475 81.6821 232.023 73.3024 231.601 70.7864C231.18 68.2704 230.327 59.7264 223.862 57.2925C217.397 54.8587 214.354 56.5018 214.354 56.5018L211.117 43.4701C211.117 43.4701 215.105 43.1004 217.52 41.0157C219.935 38.931 217.191 37.3496 217.284 34.8849C217.376 32.4203 215.166 30.3767 215.166 30.3767C215.166 30.3767 219.648 27.1316 218.938 22.5823C218.229 18.033 218.897 18.8956 215.721 15.9894C212.545 13.0832 213.522 13.5556 213.522 13.5556C213.522 13.5556 210.849 8.29769 207.17 7.28103C203.49 6.26437 202.421 4.92936 200.982 6.15141C200.838 6.27464 197.2 5.29906 191.259 8.24635C191.259 8.24635 190.087 7.41453 187.363 9.16032C184.64 10.8958 183.17 8.55443 182.718 10.6699C182.718 10.6699 177.774 11.8201 177.157 16.2153C176.54 20.6106 177.661 22.5926 177.661 22.5926C177.661 22.5926 174.567 27.3678 176.54 31.0442C178.514 34.7309 178.339 35.0287 178.339 35.0287C178.339 35.0287 179.562 38.3868 181.32 38.8283C181.587 38.9002 180.878 40.2455 183.221 44.3738C185.565 48.502 188.309 53.0821 191.721 53.2567C195.134 53.4313 197.827 51.4801 197.827 51.4801C197.827 51.4801 199.019 61.1949 199.019 61.6878C199.019 62.1807 197.601 61.9651 196.049 63.0023C194.497 64.0395 189.727 68.1369 187.096 73.2818C184.465 78.4268 181.433 85.9028 180.991 87.1865C180.559 88.4701 178.74 94.3853 178.74 94.3853C178.74 94.3853 164.638 78.9916 162.665 76.0751C160.681 73.1586 160.085 72.0906 160.085 72.0906L159.304 72.1419C159.304 72.1419 154.185 64.3989 153.815 63.8135C153.455 63.2282 152.623 62.458 152.962 61.5954C153.301 60.7327 153.157 58.0011 153.157 58.0011C153.157 58.0011 153.805 51.018 154.236 49.7959C154.668 48.5739 155.305 46.7665 154.945 45.9244C154.586 45.0926 154.072 44.2197 152.9 44.2197C151.728 44.2197 150.495 45.7088 150.495 45.7088L137.185 46.787C137.185 46.787 134.307 49.2619 134.831 51.2336C135.355 53.2054 138.264 59.1307 141.07 60.7841C143.876 62.4477 144.164 64.173 144.564 64.9124C144.965 65.6517 148.059 72.1933 148.254 72.6451C148.45 73.097 148.593 73.9904 148.593 73.9904C148.593 73.9904 147.607 73.4872 147.833 74.0418C148.059 74.5963 151.605 81.5075 152.345 82.7707C153.085 84.0338 168.05 108.475 173.087 112.49C178.123 116.505 179.48 117.933 179.48 117.933C179.48 117.933 177.99 127.237 177.26 130.841C176.53 134.446 176.592 135.966 176.592 135.966C176.592 135.966 165.029 142.702 164.093 143.257C163.158 143.811 140.319 158.147 138.675 159.565C137.03 160.982 133.515 165.459 133.073 166.537C132.621 167.616 131.408 168.447 132.518 175.071C133.628 181.695 134.677 184.581 134.677 184.581" fill="white"/>
<path d="M159.171 72.4605L153.137 62.7355C152.932 62.3966 152.86 61.9858 152.962 61.6058C153.353 60.2298 153.106 57.724 153.127 56.7998" stroke="#253238" stroke-width="0.7002" stroke-miterlimit="10"/>
<path d="M420.548 213.448C420.548 213.448 439.706 211.486 460.541 222.187C472.052 228.102 494.233 221.797 494.233 221.797C494.233 221.797 483.369 251.526 447.261 248.384C426.067 246.546 423.796 241.452 413.898 234.582C406.405 229.375 400.289 228.02 400.289 228.02C400.289 228.02 405.634 225.155 409.355 222.639C415.82 218.285 420.548 213.448 420.548 213.448Z" fill="#EFAF1E"/>
<path d="M443.469 186.1C470.151 184.334 480.039 171.969 479.813 173.52C476.329 197.345 444.538 216.025 444.538 216.025C444.538 216.025 423.354 219.783 420.63 219.003C417.906 218.222 418.04 216.025 418.04 216.025C418.04 216.025 429.572 205.971 434.938 198.495C440.293 191.019 443.469 186.1 443.469 186.1Z" fill="#EFAF1E"/>
<path d="M123.311 118.033L109.561 104.294L95.8098 118.033L109.561 131.771L123.311 118.033Z" stroke="#253238" stroke-width="0.7" stroke-miterlimit="10"/>
<path d="M278.68 40.6214L267.299 29.25L255.917 40.6214L267.299 51.9928L278.68 40.6214Z" stroke="#253238" stroke-width="0.7" stroke-miterlimit="10"/>
<path d="M489.291 75.177L482.365 68.2568L475.439 75.177L482.365 82.0971L489.291 75.177Z" stroke="#253238" stroke-width="0.7" stroke-miterlimit="10"/>
<path d="M537.029 146.156L532.305 141.437L527.581 146.156L532.305 150.876L537.029 146.156Z" stroke="#253238" stroke-width="0.7" stroke-miterlimit="10"/>
<path d="M460.726 56.5944C466.601 56.5944 471.364 51.8357 471.364 45.9656C471.364 40.0956 466.601 35.3369 460.726 35.3369C454.851 35.3369 450.088 40.0956 450.088 45.9656C450.088 51.8357 454.851 56.5944 460.726 56.5944Z" stroke="#253238" stroke-width="0.7" stroke-miterlimit="10"/>
<path d="M284.894 9.66336C287.466 9.66336 289.55 7.58059 289.55 5.01137C289.55 2.44214 287.466 0.359375 284.894 0.359375C282.323 0.359375 280.238 2.44214 280.238 5.01137C280.238 7.58059 282.323 9.66336 284.894 9.66336Z" stroke="#253238" stroke-width="0.7" stroke-miterlimit="10"/>
<path d="M521.071 192.816C525.833 192.816 529.694 188.958 529.694 184.2C529.694 179.441 525.833 175.584 521.071 175.584C516.308 175.584 512.447 179.441 512.447 184.2C512.447 188.958 516.308 192.816 521.071 192.816Z" stroke="#253238" stroke-width="0.7" stroke-miterlimit="10"/>
<path d="M83.0177 141.542C85.873 141.542 88.1877 139.229 88.1877 136.376C88.1877 133.524 85.873 131.211 83.0177 131.211C80.1623 131.211 77.8477 133.524 77.8477 136.376C77.8477 139.229 80.1623 141.542 83.0177 141.542Z" stroke="#253238" stroke-width="0.7" stroke-miterlimit="10"/>
<path d="M42.9742 223.141C44.9156 223.141 46.4894 221.569 46.4894 219.629C46.4894 217.69 44.9156 216.117 42.9742 216.117C41.0328 216.117 39.459 217.69 39.459 219.629C39.459 221.569 41.0328 223.141 42.9742 223.141Z" stroke="#253238" stroke-width="0.7" stroke-miterlimit="10"/>
<path d="M0 244.163H171.545" stroke="#253238" stroke-width="0.7002" stroke-miterlimit="10"/>
<path d="M187.23 208.95L246.166 188.75" stroke="#253238" stroke-width="0.7002" stroke-miterlimit="10"/>
<path d="M220.932 23.5067C220.264 19.1833 220.028 15.5377 217.006 12.7753C215.464 11.3581 214.95 10.9576 214.817 10.896C214.282 9.7561 211.271 3.55344 208.095 2.68055C204.6 1.72551 201.157 1.73578 199.79 2.89621C199.656 3.00917 194.825 0.102958 189.182 2.90648C189.182 2.90648 185.236 2.80378 182.645 4.45714C180.055 6.1105 178.38 8.59567 177.948 10.6085C177.948 10.6085 174.104 12.6418 173.508 16.8214C172.922 21.0113 175.451 23.9483 175.451 23.9483C175.451 23.9483 173.888 29.3294 175.769 32.8312C177.64 36.333 179.141 36.292 179.141 36.292C179.141 36.292 178.452 32.8928 179.5 30.9211C179.5 30.9211 178.647 28.4051 178.76 26.3616C178.976 22.1203 180.014 17.9099 180.795 18.105C189.943 22.1203 197.929 21.3912 198.269 21.7198C203.788 27.1523 203.469 32.8928 205.042 32.8928C206.769 32.8928 207.036 28.9083 209.719 27.943C214.405 26.2486 214.827 37.7297 211.373 37.7297C209.503 37.7297 210.808 41.1083 211.127 43.4907C211.774 43.5626 214.426 43.7167 216.42 42.0017C218.712 40.0197 219.894 35.8607 219.976 33.509C220.069 31.1676 219.349 30.9725 219.349 30.9725C219.349 30.9725 221.6 27.8301 220.932 23.5067Z" fill="#253238"/>
<path d="M211.467 45.4424C211.713 46.5515 211.95 47.3525 211.95 47.3525L211.467 45.4424Z" fill="#253238"/>
<path d="M154.771 220.081L168.925 215.224" stroke="#253238" stroke-width="0.7002" stroke-miterlimit="10"/>
<path d="M134.913 184.478L74.1369 211.917C74.1369 211.917 66.2226 231.686 85.7514 243.742L144.852 223.48" stroke="#253238" stroke-width="0.7002" stroke-miterlimit="10"/>
<path d="M229.392 141.829L210.172 150.507" stroke="#253238" stroke-width="0.7002" stroke-miterlimit="10"/>
<path d="M343.883 225.277C397.748 225.277 441.414 181.65 441.414 127.832C441.414 74.0145 397.748 30.3867 343.883 30.3867C290.018 30.3867 246.352 74.0145 246.352 127.832C246.352 181.65 290.018 225.277 343.883 225.277Z" stroke="#253238" stroke-width="0.7002" stroke-miterlimit="10"/>
<path d="M412.172 221.108C412.172 221.108 424.639 220.523 433.982 225.39C443.325 230.258 447.612 232.589 456.184 231.613" stroke="white" stroke-width="0.7002" stroke-miterlimit="10"/>
<path d="M150.773 45.7294C150.773 45.7294 153.076 42.6178 154.803 45.411C155.666 46.8077 153.168 53.3081 153.456 55.6701" stroke="#253238" stroke-width="0.7002" stroke-miterlimit="10"/>
<path d="M431.506 202.685C431.506 202.685 442.226 202.88 458.24 193.186" stroke="white" stroke-width="0.7002" stroke-miterlimit="10"/>
<path d="M213.347 67.3561C211.003 81.5585 214.436 98.9445 213.347 107.694C212.257 116.454 190.231 143.431 189.84 144.602C189.45 145.772 197.631 154.132 197.631 154.132C197.631 154.132 218.075 133.706 224.509 122.995C230.933 112.295 230.347 107.786 231.488 102.148C232.352 97.8559 233.667 77.8308 230.676 65.9903C229.176 60.0444 223.821 55.6594 217.684 55.8853C216.153 55.9366 214.591 56.2653 213.111 57.0355C210.695 58.3089 206.625 65.8465 200.581 69.6975C192.359 74.9349 197.241 62.4782 197.241 62.4782C197.241 62.4782 187.117 64.8812 178.74 94.3849C178.74 94.3849 163.065 78.2313 160.043 72.0081C160.043 72.0081 151.06 75.3046 147.966 73.7642C146.024 72.7886 167.999 111.124 179.49 117.932" stroke="#253238" stroke-width="0.7002" stroke-miterlimit="10"/>
<path d="M198.546 132.669C188.083 131.241 176.592 135.976 176.592 135.976C179.706 109.255 189.83 77.0811 189.83 77.0811" stroke="#253238" stroke-width="0.7002" stroke-miterlimit="10"/>
<path d="M197.797 52.1787C197.797 52.1787 199.606 60.5585 198.65 65.2721" stroke="#253238" stroke-width="0.7002" stroke-miterlimit="10"/>
<path d="M196.881 62.6842L199.214 61.6162" stroke="#253238" stroke-width="0.7002" stroke-miterlimit="10"/>
<path d="M214.365 56.512C214.365 56.512 210.819 45.873 210.346 37.7705" stroke="#253238" stroke-width="0.7002" stroke-miterlimit="10"/>
<path d="M208.989 36.8768C208.989 36.8768 211.456 39.2387 212.771 36.3017C214.087 33.3647 213.82 28.2608 210.88 27.6857C207.94 27.1107 206.882 31.4135 206.882 31.4135C206.882 31.4135 204.415 35.3569 203.511 30.2942C202.966 27.2647 198.269 21.7193 198.269 21.7193C198.269 21.7193 190.704 22.1917 184.383 19.6449C181.33 18.4126 180.795 18.1045 180.795 18.1045C180.795 18.1045 177.167 24.3277 179.603 31.1978" stroke="#253238" stroke-width="0.7002" stroke-miterlimit="10"/>
<path d="M179.378 36.8463C179.378 36.8463 175.441 34.6179 175.03 30.048C174.619 25.4782 176.346 22.1201 176.346 22.1201" stroke="#253238" stroke-width="0.7002" stroke-miterlimit="10"/>
<path d="M175.574 24.1735C175.574 24.1735 171.966 20.2301 174.227 15.2906C176.489 10.351 179.593 10.4024 179.593 10.4024" stroke="#253238" stroke-width="0.7002" stroke-miterlimit="10"/>
<path d="M178.104 10.6698C178.104 10.6698 180.591 2.51593 189.739 3.15262" stroke="#253238" stroke-width="0.7002" stroke-miterlimit="10"/>
<path d="M187.117 4.7748C187.117 4.7748 190.694 1.62213 194.795 1.67347C198.896 1.72482 202.473 4.7748 202.473 4.7748" stroke="#253238" stroke-width="0.7002" stroke-miterlimit="10"/>
<path d="M199.555 2.93724C199.555 2.93724 206.451 0.164533 210.912 4.78572C215.373 9.4069 215.866 14.6134 215.866 14.6134" stroke="#253238" stroke-width="0.7002" stroke-miterlimit="10"/>
<path d="M215.166 11.4707C215.166 11.4707 219.76 12.9289 220.86 22.12C221.96 31.311 217.746 32.2044 217.746 32.2044" stroke="#253238" stroke-width="0.7002" stroke-miterlimit="10"/>
<path d="M211.363 43.84C211.363 43.84 216.626 44.4253 218.969 38.8696C221.22 33.5296 219.38 31.0547 219.38 31.0547" stroke="#253238" stroke-width="0.7002" stroke-miterlimit="10"/>
<path d="M191.014 37.9792C193.062 37.3397 193.961 34.3856 193.021 31.3811C192.081 28.3766 189.659 26.4594 187.611 27.0989C185.563 27.7384 184.664 30.6925 185.604 33.697C186.544 36.7015 188.966 38.6187 191.014 37.9792Z" stroke="#253238" stroke-width="0.7002" stroke-miterlimit="10"/>
<path d="M183.9 38.9412C183.684 39.4444 183.294 40.0093 182.872 40.1428C181.618 40.533 179.963 38.7975 179.172 36.2712C178.381 33.745 178.751 31.3728 180.005 30.9825C181.259 30.5923 182.913 32.3278 183.705 34.8541" stroke="#253238" stroke-width="0.7002" stroke-miterlimit="10"/>
<path d="M183.346 33.7145C183.346 33.7145 184.24 32.5848 185.401 32.9853" stroke="#253238" stroke-width="0.7002" stroke-miterlimit="10"/>
<path d="M192.596 30.2944L208.239 28.7129" stroke="#253238" stroke-width="0.7002" stroke-miterlimit="10"/>
<path d="M183.611 33.4473C183.611 33.4473 184.084 42.1659 184.084 42.7821C184.084 43.3982 186.078 43.0491 187.373 42.1762" stroke="#253238" stroke-width="0.7002" stroke-miterlimit="10"/>
<path d="M189.615 46.4888C189.615 46.4888 194.282 45.657 197.242 41.5801" stroke="#253238" stroke-width="0.7002" stroke-miterlimit="10"/>
<path d="M181.875 40.0609C181.875 40.0609 185.215 51.5933 191.218 53.7499C193.027 54.3968 200.684 51.0285 204.467 47.7937C206.605 45.9658 205.721 39.4961 205.721 39.4961" stroke="#253238" stroke-width="0.7002" stroke-miterlimit="10"/>
<path d="M136.405 38.171C135.49 32.9336 134.246 32.0915 137.782 32.0915C139.837 32.0915 140.464 32.0607 143.753 32.0813C147.043 32.1018 147.587 32.2148 147.844 33.5498C148.204 35.4291 154.916 56.4606 153.816 57.5081C152.716 58.5555 143.548 59.3565 142.51 58.915C141.472 58.4734 140.238 53.2771 140.238 53.2771" fill="#EFAF1E"/>
<path d="M213.193 137.537C213.193 137.537 211.703 152.438 202.103 168.006C194.672 180.073 189.615 190.075 189.615 190.075L182.8 245.765C182.8 245.765 175.41 249.339 172.296 246.227C169.181 243.116 167.886 190.681 168.082 183.287C168.277 175.893 175.225 154.132 176.335 149.84" stroke="#253238" stroke-width="0.7002" stroke-miterlimit="10"/>
<path d="M181.352 246.586L180.694 252.768C180.694 252.768 179.882 255.756 178.165 254.976C176.603 254.267 173.756 251.413 173.756 251.413V247.14C173.756 247.14 176.747 248.024 178.782 247.336C180.817 246.648 181.352 246.586 181.352 246.586Z" fill="#253238" stroke="#253238" stroke-width="0.7002" stroke-miterlimit="10"/>
<path d="M180.91 251.536C180.91 251.536 181.937 251.587 182.585 252.738C182.832 253.179 183.407 255.931 183.561 257.123C183.87 259.505 181.948 260.512 179.501 260.912C178.165 261.128 176.531 261.364 174.588 261.569C163.827 262.73 159.15 262.873 157.814 261.138C157.187 260.316 153.374 254.103 161.566 254.412C165.564 254.566 173.735 251.536 173.735 251.536" stroke="#253238" stroke-width="0.7002" stroke-miterlimit="10"/>
<path d="M154.02 225.955L153.548 231.059C153.548 231.059 153.065 234.119 151.266 233.523C149.642 232.979 146.486 230.453 146.486 230.453L145.818 224.363C145.818 224.363 149.621 226.212 151.471 226.191C152.417 226.181 154.02 225.955 154.02 225.955Z" fill="#253238" stroke="#253238" stroke-width="0.7002" stroke-miterlimit="10"/>
<path d="M153.671 228.944C153.671 228.944 155.079 228.718 155.953 229.724C156.282 230.114 157.279 232.497 157.248 234.787C157.217 237.272 155.922 237.847 153.805 238.802C152.654 239.316 144.328 241.462 142.622 242.099C133.166 245.662 130.38 239.901 130.278 238.237C130.226 237.364 129.034 235.567 137.575 233.596C141.317 232.733 146.322 229.087 146.322 229.087" stroke="#253238" stroke-width="0.7002" stroke-miterlimit="10"/>
<path d="M188.084 141.203C188.084 141.203 193.439 153.557 200.942 156.083" stroke="#253238" stroke-width="0.7002" stroke-miterlimit="10"/>
<path d="M176.592 135.976C176.592 135.976 138.943 157.634 136.476 161.659C134.009 165.685 130.638 166.588 132.837 176.704C135.037 186.819 144 222.114 144.843 223.47C145.685 224.826 151.071 227.167 153.959 225.74C156.848 224.312 153.959 175.872 153.959 175.872C153.959 175.872 169.819 168.858 171.381 166.167" stroke="#253238" stroke-width="0.7002" stroke-miterlimit="10"/>
<path d="M103.369 277.117H129.24" stroke="#253238" stroke-width="0.7002" stroke-miterlimit="10"/>
<path d="M269.816 261.579H295.677" stroke="#253238" stroke-width="0.7002" stroke-miterlimit="10"/>
<path d="M469.689 263.1H485.652" stroke="#253238" stroke-width="0.7002" stroke-miterlimit="10"/>
<path d="M331.209 275.556H337.849" stroke="#253238" stroke-width="0.7002" stroke-miterlimit="10"/>
<path d="M437.652 282.252H444.292" stroke="#253238" stroke-width="0.7002" stroke-miterlimit="10"/>
<path d="M189.912 285.641H196.552" stroke="#253238" stroke-width="0.7002" stroke-miterlimit="10"/>
<path d="M79.6973 268.255H86.3371" stroke="#253238" stroke-width="0.7002" stroke-miterlimit="10"/>
<path d="M395.047 282.252H427.311" stroke="#253238" stroke-width="0.7002" stroke-miterlimit="10"/>
<path d="M247.133 115.571H289.551V47.249" stroke="#253238" stroke-width="0.7002" stroke-miterlimit="10"/>
<path d="M267.762 188.75H307.858V95.8643H289.552" stroke="#253238" stroke-width="0.7002" stroke-miterlimit="10"/>
<path d="M307.857 154.143H352.28V224.929" stroke="#253238" stroke-width="0.7002" stroke-miterlimit="10"/>
<path d="M280.238 188.75V201.669" stroke="#253238" stroke-width="0.7002" stroke-miterlimit="10"/>
<path d="M307.857 131.786H343.882V49.7031H289.551" stroke="#253238" stroke-width="0.7002" stroke-miterlimit="10"/>
<path d="M343.883 98.1025H393.157V43.7266" stroke="#253238" stroke-width="0.7002" stroke-miterlimit="10"/>
<path d="M334.529 131.786V154.009" stroke="#253238" stroke-width="0.7002" stroke-miterlimit="10"/>
<path d="M401.06 137.536V85.6455H393.156" stroke="#253238" stroke-width="0.7002" stroke-miterlimit="10"/>
<path d="M352.279 176.786H385.396" stroke="#253238" stroke-width="0.7002" stroke-miterlimit="10"/>
<path d="M385.396 216.025V137.537H422.758" stroke="#253238" stroke-width="0.7002" stroke-miterlimit="10"/>
<path d="M422.758 70.5195V153.547H437.97" stroke="#253238" stroke-width="0.7002" stroke-miterlimit="10"/>
<path d="M393.156 77.0918H422.758" stroke="#253238" stroke-width="0.7002" stroke-miterlimit="10"/>
<path d="M328.764 49.7035V31.5576" stroke="#253238" stroke-width="0.7002" stroke-miterlimit="10"/>
<path d="M343.881 243.012C407.55 243.012 459.163 191.444 459.163 127.832C459.163 64.2194 407.55 12.6514 343.881 12.6514C280.213 12.6514 228.6 64.2194 228.6 127.832C228.6 191.444 280.213 243.012 343.881 243.012Z" stroke="#253238" stroke-width="0.7002" stroke-miterlimit="10"/>
<path d="M139.354 55.6593C139.447 55.5669 140.187 53.4103 140.187 53.4103C140.187 53.4103 144.843 54.807 144.679 53.1125C144.576 52.0959 143.384 50.6992 143.384 50.6992C143.384 50.6992 144.298 49.9188 143.589 49.1383C142.88 48.3578 141.729 47.2179 141.729 47.2179C141.729 47.2179 144.216 46.0781 142.53 45.0614C140.557 43.8804 137.114 42.8432 137.114 42.8432L136.641 37.8215L134.822 37.6572L134.01 45.3387L135.377 53.2152L139.354 55.6593Z" fill="white"/>
<path d="M148.842 74.0619C148.842 74.0619 145.522 65.7027 142.777 62.0982C142.325 61.5129 139.982 60.3524 138.358 58.2678C136.61 56.0291 136.292 55.074 135.675 53.5336C134.904 51.6441 134.277 49.467 133.887 47.8547C133.465 46.1603 132.746 37.2465 133.208 35.3364C133.65 33.4982 135.757 34.8127 136.292 37.5751C136.847 40.4711 137.659 42.9357 137.659 42.9357" stroke="#253238" stroke-width="0.7002" stroke-miterlimit="10"/>
<path d="M141.153 47.3623C141.153 47.3623 145.058 46.0479 141.564 44.528C138.501 43.193 136.414 42.2585 136.414 42.2585C136.414 42.2585 133.228 41.9607 133.557 45.7193" stroke="#253238" stroke-width="0.7002" stroke-miterlimit="10"/>
<path d="M143.106 50.997C143.106 50.997 145.912 49.8365 142.582 48.0805C138.707 46.0369 136.518 45.5234 136.518 45.5234C136.518 45.5234 134.143 46.5401 134.482 50.0419" stroke="#253238" stroke-width="0.7002" stroke-miterlimit="10"/>
<path d="M139.456 53.2666C140.299 53.5233 143.382 54.3038 144.4 53.7698C144.862 53.5336 145.14 52.2294 144.122 51.6851C141.368 50.2269 139.384 49.3642 138.572 49.0253C138.253 48.8918 137.904 48.8508 137.575 48.9329C136.671 49.1486 135.119 50.0317 135.674 53.5336" stroke="#253238" stroke-width="0.7002" stroke-miterlimit="10"/>
<path d="M403.753 204.75C386.075 218.5 363.596 226.274 339.462 225.175C303.488 223.542 272.962 202.634 257.4 172.894L235.908 168.242C251.624 210.11 291.123 240.733 338.661 242.9C372.261 244.43 403.157 231.419 425.256 209.432L403.753 204.75Z" fill="#253238"/>
<path d="M186.562 23.1162C186.562 23.1162 189.831 22.8389 192.041 25.2419" stroke="#253238" stroke-width="0.7002" stroke-miterlimit="10"/>
<path d="M177.66 30.2939C177.753 29.9242 178.678 27.8909 180.528 27.7061" stroke="#253238" stroke-width="0.7002" stroke-miterlimit="10"/>
<path d="M189.704 34.1296C190.105 34.0237 190.22 33.1467 189.961 32.1708C189.703 31.1949 189.169 30.4896 188.768 30.5954C188.368 30.7013 188.252 31.5783 188.511 32.5542C188.769 33.5301 189.303 34.2354 189.704 34.1296Z" fill="#253238"/>
<path d="M182.007 36.8701C182.342 36.7816 182.439 36.0521 182.224 35.2407C182.009 34.4292 181.564 33.8432 181.229 33.9316C180.894 34.0201 180.797 34.7496 181.012 35.561C181.227 36.3725 181.672 36.9586 182.007 36.8701Z" fill="#253238"/>
<path d="M198.505 56.5118C198.505 56.5118 201.774 55.454 204.076 51.295C207.386 45.3182 205.72 40.1836 205.72 40.1836C205.72 40.1836 206.132 46.2322 204.991 47.1359C203.86 48.0293 198.012 52.1679 198.012 52.1679L198.505 56.5118Z" fill="#253238"/>
<path d="M155.059 175.358C155.059 175.358 165.964 166.188 169.839 162.275C173.714 158.373 173.94 157.644 173.94 157.644L171.083 166.568C171.083 166.568 164.093 170.634 160.784 172.678C157.474 174.732 155.059 175.358 155.059 175.358Z" fill="#253238"/>
<path d="M193.232 103.772C194.188 103.515 205.433 98.0619 208.249 93.9131" stroke="#253238" stroke-width="0.6803" stroke-miterlimit="10"/>
<path d="M181.3 98.0611C181.3 98.0611 180.169 96.0278 178.74 94.4053" stroke="#253238" stroke-width="0.6803" stroke-miterlimit="10"/>
<path d="M174.412 113.651C174.412 113.651 175.255 113.774 176.807 112.511C179.993 109.933 185.574 91.0684 185.574 91.0684L179.551 117.625C179.551 117.625 176.036 115.91 174.412 113.651Z" fill="#253238"/>
<path d="M382.036 124.67C382.036 134.682 375.848 142.138 368.201 142.138C360.554 142.138 354.418 134.61 354.418 124.598" stroke="#253238" stroke-width="0.7002" stroke-miterlimit="10"/>
<path d="M354.418 124.587C354.418 124.587 359.598 116.053 375.92 115.981C382.508 115.95 380.915 110.877 380.915 110.877C380.915 110.877 374.985 100.669 362.733 105.876C354.675 109.306 352.455 114.697 352.948 122.101C352.989 122.903 354.335 123.745 354.418 124.587Z" stroke="#253238" stroke-width="0.7002" stroke-miterlimit="10"/>
<path d="M375.92 115.982C375.92 115.982 381.563 122.626 382.036 124.67L383.372 122.513C383.67 118.878 382.848 112.357 380.915 110.878" stroke="#253238" stroke-width="0.7002" stroke-miterlimit="10"/>
<path d="M368.786 130.194C368.786 130.194 364.438 128.653 361.612 131.457C358.785 134.26 358.785 134.26 358.785 134.26C358.785 134.26 363.472 135.78 365.682 134.322C367.892 132.864 368.786 132.361 368.786 132.361" stroke="#253238" stroke-width="0.7002" stroke-miterlimit="10"/>
<path d="M368.498 130.266C368.498 130.266 373.134 128.654 375.96 131.457C378.191 133.665 378.191 133.665 378.191 133.665C378.191 133.665 374.11 135.544 371.777 134.322C369.968 133.378 368.508 132.279 368.508 132.279" stroke="#253238" stroke-width="0.7002" stroke-miterlimit="10"/>
<path d="M359.607 124.094C359.607 124.094 362.742 122.05 365.055 124.094" stroke="#253238" stroke-width="0.7002" stroke-miterlimit="10"/>
<path d="M371.623 124.279C371.623 124.279 374.758 122.236 377.071 124.279" stroke="#253238" stroke-width="0.7002" stroke-miterlimit="10"/>
<path d="M358.785 121.958C358.785 121.958 360.923 118.764 363.801 119.678" stroke="#253238" stroke-width="0.7002" stroke-miterlimit="10"/>
<path d="M372.549 119.001C372.549 119.001 376.187 118.497 377.523 121.373" stroke="#253238" stroke-width="0.7002" stroke-miterlimit="10"/>
<path d="M352.999 122.379C352.999 122.379 350.429 120.736 352.095 126.908C353.482 132.042 355.065 130.071 355.065 130.071" stroke="#253238" stroke-width="0.7002" stroke-miterlimit="10"/>
<path d="M383.371 122.513C383.371 122.513 386.392 121.075 384.943 126.898C383.658 132.053 381.695 129.824 381.695 129.824" stroke="#253238" stroke-width="0.7002" stroke-miterlimit="10"/>
<path d="M404.503 162.142C404.503 162.142 400.505 159.072 402.242 165.408C403.527 170.111 405.14 168.294 405.14 168.294" stroke="#253238" stroke-width="0.7002" stroke-miterlimit="10"/>
<path d="M427.702 162.634C427.702 162.634 431.7 159.564 429.963 165.9C428.678 170.603 426.787 168.57 426.787 168.57" stroke="#253238" stroke-width="0.7002" stroke-miterlimit="10"/>
<path d="M362.384 140.71C362.384 140.71 362.168 142.62 362.476 144.777C362.877 147.57 364.183 154.142 368.027 154.142C372.364 154.142 373.69 147.364 374.029 144.438C374.286 142.271 373.998 140.392 373.998 140.392" stroke="#253238" stroke-width="0.7002" stroke-miterlimit="10"/>
<path d="M373.875 143.38C380.833 144.119 385.397 145.896 385.397 145.896" stroke="#253238" stroke-width="0.7" stroke-miterlimit="10"/>
<path d="M340.121 154.142C340.121 154.142 347.295 143.821 362.579 143.205" stroke="#253238" stroke-width="0.7" stroke-miterlimit="10"/>
<path d="M319.275 64.748C328.043 67.9931 327.19 78.7246 327.19 78.7246C327.19 83.4279 325.196 87.8232 322.678 90.7499" stroke="#253238" stroke-width="0.7002" stroke-miterlimit="10"/>
<path d="M303.539 90.4316C301.031 87.4843 299.376 83.356 299.376 78.6527C299.376 78.6527 297.732 68.4245 306.509 65.0664" stroke="#253238" stroke-width="0.7002" stroke-miterlimit="10"/>
<path d="M299.377 77.4612C299.377 77.4612 295.255 74.2983 297.044 80.8193C298.37 85.6664 300.035 83.7974 300.035 83.7974" stroke="#253238" stroke-width="0.7002" stroke-miterlimit="10"/>
<path d="M327.211 77.5535C327.211 77.5535 331.898 74.3084 330.12 80.8294C328.794 85.6765 326.852 83.5816 326.852 83.5816" stroke="#253238" stroke-width="0.7002" stroke-miterlimit="10"/>
<path d="M372.816 51.2333C372.816 51.2333 376.763 47.8958 375.036 54.2217C373.751 58.925 371.613 56.3372 371.613 56.3372" stroke="#253238" stroke-width="0.7002" stroke-miterlimit="10"/>
<path d="M348.765 51.2333C348.765 51.2333 344.818 47.8958 346.544 54.2217C347.829 58.925 349.71 56.6042 349.71 56.6042" stroke="#253238" stroke-width="0.7002" stroke-miterlimit="10"/>
<path d="M307.857 99.9408C307.857 99.9408 309.512 108.926 312.657 108.926C314.939 108.926 320.325 98.7188 320.325 98.7188" stroke="#253238" stroke-width="0.7002" stroke-miterlimit="10"/>
<path d="M341.94 131.745C341.94 121.989 339.309 110.96 337.716 106.595C337.305 105.466 336.503 104.531 335.434 103.966C332.279 102.313 327.818 100.537 320.325 98.7188C320.325 98.7188 319.143 97.8665 319.297 97.0244" stroke="#253238" stroke-width="0.7" stroke-miterlimit="10"/>
<path d="M286.457 132.474C285.326 146.594 281.184 153.587 273.979 153.587C266.774 153.587 260.936 142.907 260.936 132.474" stroke="#253238" stroke-width="0.7002" stroke-miterlimit="10"/>
<path d="M269.631 145.485C269.631 145.485 275.12 146.553 278.234 145.403C278.388 145.342 278.306 145.393 278.224 145.557C277.669 146.646 275.705 148.843 273.783 148.864C271.162 148.884 269.631 145.485 269.631 145.485Z" stroke="#253238" stroke-width="0.7002" stroke-miterlimit="10"/>
<path d="M356.771 59.6852C356.771 59.6852 361.921 60.6916 364.84 59.603C364.984 59.5517 364.912 59.5927 364.83 59.7468C364.305 60.7634 362.466 62.8378 360.657 62.8481C358.2 62.8789 356.771 59.6852 356.771 59.6852Z" stroke="#253238" stroke-width="0.7002" stroke-miterlimit="10"/>
<path d="M412.418 170.336C412.418 170.336 417.639 171.199 420.599 170.265C420.754 170.213 420.671 170.254 420.589 170.388C420.055 171.271 418.194 173.048 416.365 173.068C413.867 173.089 412.418 170.336 412.418 170.336Z" stroke="#253238" stroke-width="0.7002" stroke-miterlimit="10"/>
<path d="M269.322 152.263C269.322 152.263 268.356 162.337 274.009 162.337C280.279 162.337 278.974 151.944 278.974 151.944" stroke="#253238" stroke-width="0.7002" stroke-miterlimit="10"/>
<path d="M294.279 160.088C300.508 166.845 300.025 188.76 300.025 188.76" stroke="#253238" stroke-width="0.7" stroke-miterlimit="10"/>
<path d="M269.005 155.816C255.941 156.915 252.539 162.07 252.539 162.07" stroke="#253238" stroke-width="0.7" stroke-miterlimit="10"/>
<path d="M259.426 139.293C260.299 150.086 262.191 153.434 265.942 156.165" stroke="#253238" stroke-width="0.7002" stroke-miterlimit="10"/>
<path d="M265.211 115.673C265.211 115.673 258.602 119.247 259.034 131.868" stroke="#253238" stroke-width="0.7002" stroke-miterlimit="10"/>
<path d="M279.088 154.491C279.088 154.491 279.951 168.766 280.136 170.398C281.791 184.786 295.872 184.786 295.872 184.786C295.872 184.786 297.26 174.845 294.69 162.347C293.704 157.541 290.785 135.442 290.785 135.442C290.785 135.442 292.645 124.32 284.566 115.684" stroke="#253238" stroke-width="0.7002" stroke-miterlimit="10"/>
<path d="M275.428 134.487C275.428 134.487 275.305 139.57 280.033 139.57C284.761 139.57 284.565 134.128 284.565 134.128C284.565 134.128 279.519 131.509 275.428 134.487Z" stroke="#253238" stroke-width="0.7" stroke-miterlimit="10"/>
<path d="M272.529 134.487C272.529 134.487 272.653 139.57 267.925 139.57C263.196 139.57 263.392 134.128 263.392 134.128C263.392 134.128 268.438 131.509 272.529 134.487Z" stroke="#253238" stroke-width="0.7" stroke-miterlimit="10"/>
<path d="M272.529 134.487C272.529 134.487 273.979 133.44 275.418 134.487" stroke="#253238" stroke-width="0.7" stroke-miterlimit="10"/>
<path d="M263.402 134.897L260.936 132.474C260.936 132.474 265.52 123.272 270.7 124.515" stroke="#253238" stroke-width="0.7002" stroke-miterlimit="10"/>
<path d="M284.556 134.898L286.458 132.474C269.016 128.623 269.016 120.654 269.016 120.654" stroke="#253238" stroke-width="0.7002" stroke-miterlimit="10"/>
<path d="M305.319 95.8637C303.571 93.9023 302.883 91.1912 304.137 88.0899C305.36 85.0707 307.004 83.633 309.481 83.6227C311.249 83.6125 313.295 83.6227 313.295 83.6227C313.295 83.6227 315.833 83.633 316.563 83.6227C320.089 83.5817 322.741 88.2028 322.689 90.7291C322.638 93.2656 321.415 95.9459 319.657 96.8599C317.262 98.0922 310.088 98.1846 308.094 97.2706" stroke="#253238" stroke-width="0.7002" stroke-miterlimit="10"/>
<path d="M308.596 86.7246C308.596 86.7246 311.607 89.4049 317.62 86.7246" stroke="#253238" stroke-width="0.7002" stroke-miterlimit="10"/>
<path d="M379.249 144.088L376.238 156.976L368.19 155.2L360.789 157.089L357.027 143.821" stroke="#253238" stroke-width="0.7002" stroke-miterlimit="10"/>
<path d="M329.781 118.6C329.781 118.6 332.197 128.694 331.878 131.744" stroke="#253238" stroke-width="0.7" stroke-miterlimit="10"/>
<path d="M307.105 206.772C307.105 206.772 311.679 217.165 315.636 217.165C320.693 217.165 325.483 206.957 325.483 206.957" stroke="#253238" stroke-width="0.7002" stroke-miterlimit="10"/>
<path d="M347.11 239.983C347.11 230.227 344.478 219.198 342.885 214.833C342.474 213.704 341.672 212.769 340.603 212.204C337.448 210.551 332.987 208.775 325.494 206.957C325.494 206.957 321.845 207.583 322.842 203.496" stroke="#253238" stroke-width="0.7" stroke-miterlimit="10"/>
<path d="M324.991 153.721C324.991 143.965 323.367 136.15 321.773 131.775" stroke="#253238" stroke-width="0.7" stroke-miterlimit="10"/>
<path d="M312.832 140.576C312.832 140.576 315.247 150.671 314.929 153.721" stroke="#253238" stroke-width="0.7" stroke-miterlimit="10"/>
<path d="M306.172 63.0743C306.172 65.2103 307.107 67.5927 309.975 67.9111C313.912 68.3527 315.464 66.535 315.464 66.535C315.464 66.535 318.578 64.4606 319.287 64.7482C319.996 65.0357 317.951 61.8727 316.728 61.3798C315.505 60.8869 312.298 60.5994 311.548 58.7714C310.797 56.9435 310.602 53.4519 307.868 56.81C307.251 57.5494 306.162 59.3876 306.172 63.0743Z" stroke="#253238" stroke-width="0.7002" stroke-miterlimit="10"/>
<path d="M273.691 139.57C273.362 141.871 273.115 143.072 273.115 143.072C273.115 143.072 274.451 142.959 274.842 143.206" stroke="#253238" stroke-width="0.7002" stroke-miterlimit="10"/>
<path d="M368.232 124.495C367.934 126.97 368.006 130.184 368.006 130.184" stroke="#253238" stroke-width="0.7002" stroke-miterlimit="10"/>
<path d="M312.627 75.6641C312.298 78.2109 311.928 82.3186 311.928 82.3186C311.928 82.3186 313.264 82.1851 313.655 82.4726" stroke="#253238" stroke-width="0.7002" stroke-miterlimit="10"/>
<path d="M306.51 78.8786C307.072 78.8786 307.527 78.051 307.527 77.0301C307.527 76.0092 307.072 75.1816 306.51 75.1816C305.948 75.1816 305.492 76.0092 305.492 77.0301C305.492 78.051 305.948 78.8786 306.51 78.8786Z" fill="#253238"/>
<path d="M318.629 78.5807C319.191 78.5807 319.646 77.7532 319.646 76.7323C319.646 75.7114 319.191 74.8838 318.629 74.8838C318.067 74.8838 317.611 75.7114 317.611 76.7323C317.611 77.7532 318.067 78.5807 318.629 78.5807Z" fill="#253238"/>
<path d="M403.353 106.78C403.785 106.78 404.135 106.136 404.135 105.342C404.135 104.548 403.785 103.904 403.353 103.904C402.922 103.904 402.572 104.548 402.572 105.342C402.572 106.136 402.922 106.78 403.353 106.78Z" fill="#253238"/>
<path d="M413.59 106.78C414.021 106.78 414.371 106.136 414.371 105.342C414.371 104.548 414.021 103.904 413.59 103.904C413.158 103.904 412.809 104.548 412.809 105.342C412.809 106.136 413.158 106.78 413.59 106.78Z" fill="#253238"/>
<path d="M304.084 73.7848C304.084 73.7848 305.215 70.8786 307.856 71.7618" stroke="#253238" stroke-width="0.7002" stroke-miterlimit="10"/>
<path d="M263.846 132.761C263.846 132.761 265.829 130.04 269.715 131.303" stroke="#253238" stroke-width="0.7002" stroke-miterlimit="10"/>
<path d="M276.055 131.683C276.055 131.683 278.676 130.091 282.746 131.529" stroke="#253238" stroke-width="0.7002" stroke-miterlimit="10"/>
<path d="M321.393 73.6003C321.393 73.6003 320.263 70.6941 317.621 71.5772" stroke="#253238" stroke-width="0.7002" stroke-miterlimit="10"/>
<path d="M360.338 51.2539C360.04 53.5953 359.701 57.3641 359.701 57.3641C359.701 57.3641 360.924 57.2409 361.284 57.5079" stroke="#253238" stroke-width="0.7002" stroke-miterlimit="10"/>
<path d="M354.726 54.2111C355.237 54.2111 355.651 53.4525 355.651 52.5167C355.651 51.5809 355.237 50.8223 354.726 50.8223C354.215 50.8223 353.801 51.5809 353.801 52.5167C353.801 53.4525 354.215 54.2111 354.726 54.2111Z" fill="#253238"/>
<path d="M365.847 53.9348C366.358 53.9348 366.772 53.1761 366.772 52.2403C366.772 51.3045 366.358 50.5459 365.847 50.5459C365.336 50.5459 364.922 51.3045 364.922 52.2403C364.922 53.1761 365.336 53.9348 365.847 53.9348Z" fill="#253238"/>
<path d="M352.506 49.5395C352.506 49.5395 353.544 46.8695 355.959 47.6808" stroke="#253238" stroke-width="0.7002" stroke-miterlimit="10"/>
<path d="M368.375 49.3647C368.375 49.3647 367.337 46.6947 364.922 47.506" stroke="#253238" stroke-width="0.7002" stroke-miterlimit="10"/>
<path d="M316.285 115.181C316.285 115.181 323.336 115.335 326.492 114.564" stroke="#253238" stroke-width="0.7002" stroke-miterlimit="10"/>
<path d="M373.361 46.8586C372.189 61.4513 365.755 68.3728 360.461 68.6911C354.921 69.03 348.066 57.857 348.066 47.064C348.066 47.064 346.812 34.1349 361.51 34.8435C374.296 35.4597 373.361 46.8586 373.361 46.8586Z" stroke="#253238" stroke-width="0.7002" stroke-miterlimit="10"/>
<path d="M366.803 72.9631C365.744 70.4882 366.382 65.6719 366.382 65.6719" stroke="#253238" stroke-width="0.7002" stroke-miterlimit="10"/>
<path d="M355.323 66.3086C355.323 66.3086 355.744 70.9914 354.572 72.9631" stroke="#253238" stroke-width="0.7002" stroke-miterlimit="10"/>
<path d="M355.323 70.9912C345.322 71.7101 343.883 73.1786 343.883 73.1786" stroke="#253238" stroke-width="0.7" stroke-miterlimit="10"/>
<path d="M261.017 132.874C261.017 132.874 256.896 129.044 258.684 136.941C260.01 142.805 262.076 140.186 262.076 140.186" stroke="#253238" stroke-width="0.7002" stroke-miterlimit="10"/>
<path d="M420.096 101.923C419.089 114.41 415.44 120.603 409.058 120.603C405.943 120.603 403.127 118.354 401.051 114.985" stroke="#253238" stroke-width="0.7002" stroke-miterlimit="10"/>
<path d="M404.946 119.432C404.946 119.432 404.093 128.346 409.098 128.346C414.649 128.346 413.487 119.145 413.487 119.145" stroke="#253238" stroke-width="0.7002" stroke-miterlimit="10"/>
<path d="M404.668 122.564C401.061 123.181 401.061 123.181 401.061 123.181" stroke="#253238" stroke-width="0.7" stroke-miterlimit="10"/>
<path d="M422.758 123.981C417.054 122.245 413.59 122.553 413.59 122.553" stroke="#253238" stroke-width="0.7" stroke-miterlimit="10"/>
<path d="M401.01 97.0242C401.01 97.0242 401.575 93.7791 406.159 94.8882" stroke="#253238" stroke-width="0.7002" stroke-miterlimit="10"/>
<path d="M420.62 102.272C405.182 98.8622 404.668 91.458 404.668 91.458" stroke="#253238" stroke-width="0.7002" stroke-miterlimit="10"/>
<path d="M408.79 105.753C408.502 107.786 408.297 110.251 408.297 110.251C408.297 110.251 409.479 110.148 409.828 110.374" stroke="#253238" stroke-width="0.7002" stroke-miterlimit="10"/>
<path d="M401.678 101.378C401.678 101.378 402.336 99.7456 405.029 100.793" stroke="#253238" stroke-width="0.7002" stroke-miterlimit="10"/>
<path d="M411.863 101.553C411.863 101.553 414.238 100.095 415.831 101.872" stroke="#253238" stroke-width="0.7002" stroke-miterlimit="10"/>
<path d="M257.092 173.438L257.719 172.165C257.719 172.165 257.534 178.173 257.914 179.549" stroke="#253238" stroke-width="0.7" stroke-miterlimit="10"/>
<path d="M290.619 188.749V184.2" stroke="#253238" stroke-width="0.7" stroke-miterlimit="10"/>
<path d="M348.066 51.2333C348.066 51.2333 350.513 49.4054 350.543 46.2013C350.574 42.987 353.987 41.0461 356.7 42.5455C359.414 44.0448 361.099 44.0448 363.854 42.9973C367.235 41.7034 370.165 41.4877 370.319 46.0884C370.463 50.3604 372.806 51.2436 372.806 51.2436" stroke="#253238" stroke-width="0.7" stroke-miterlimit="10"/>
<path d="M365.098 32.8203C365.355 33.5084 365.406 34.3504 365.18 35.3876" stroke="#253238" stroke-width="0.7002" stroke-miterlimit="10"/>
<path d="M355.774 35.3882C355.774 35.3882 353.318 31.9377 355.949 31.1367" stroke="#253238" stroke-width="0.7002" stroke-miterlimit="10"/>
<path d="M374.635 205.118C374.635 205.118 378.305 202.017 376.691 207.901C375.499 212.276 373.721 210.079 373.721 210.079" stroke="#253238" stroke-width="0.7002" stroke-miterlimit="10"/>
<path d="M359.711 212.986C359.711 212.986 364.501 213.92 367.214 212.914C367.348 212.862 367.286 212.903 367.204 213.047C366.721 213.992 365.004 215.923 363.329 215.933C361.047 215.953 359.711 212.986 359.711 212.986Z" stroke="#253238" stroke-width="0.7002" stroke-miterlimit="10"/>
<path d="M363.041 205.14C362.764 207.317 362.445 210.819 362.445 210.819C362.445 210.819 363.586 210.706 363.925 210.952" stroke="#253238" stroke-width="0.7002" stroke-miterlimit="10"/>
<path d="M357.82 207.891C358.297 207.891 358.684 207.183 358.684 206.31C358.684 205.437 358.297 204.729 357.82 204.729C357.344 204.729 356.957 205.437 356.957 206.31C356.957 207.183 357.344 207.891 357.82 207.891Z" fill="#253238"/>
<path d="M368.16 207.645C368.637 207.645 369.024 206.937 369.024 206.064C369.024 205.19 368.637 204.482 368.16 204.482C367.683 204.482 367.297 205.19 367.297 206.064C367.297 206.937 367.683 207.645 368.16 207.645Z" fill="#253238"/>
<path d="M355.754 201.915L358.961 201.822" stroke="#253238" stroke-width="0.7002" stroke-miterlimit="10"/>
<path d="M370.502 203.383C370.502 203.383 368.673 202.449 367.285 201.658" stroke="#253238" stroke-width="0.7002" stroke-miterlimit="10"/>
<path d="M374.635 205.119C372.888 218.274 368.067 221.057 363.144 221.355C357.995 221.663 353.153 214.403 352.27 205.119" stroke="#253238" stroke-width="0.7002" stroke-miterlimit="10"/>
<path d="M366.145 71.0947C366.278 71.0947 366.412 71.0947 366.545 71.0947C376.505 71.2077 384.512 78.2832 384.974 87.0532C385.005 87.7207 385.026 88.4293 385.036 89.1687C385.087 95.7205 385.036 97.8565 385.036 97.8565" stroke="#253238" stroke-width="0.7" stroke-miterlimit="10"/>
<path d="M376.772 88.9111C376.423 89.3835 376.772 98.1021 376.772 98.1021" stroke="#253238" stroke-width="0.7002" stroke-miterlimit="10"/>
<path d="M351.734 71.5977C351.734 71.5977 350.84 79.0224 360.101 84.4754L359.659 98.0924" stroke="#253238" stroke-width="0.7002" stroke-miterlimit="10"/>
<path d="M360.092 84.485C360.092 84.485 370.267 78.5699 370.267 71.6689" stroke="#253238" stroke-width="0.7002" stroke-miterlimit="10"/>
<path d="M262.117 84.5576C272.313 85.9748 279.847 92.1364 280.33 101.368C280.371 102.067 280.392 102.816 280.392 103.597C280.443 110.498 280.392 115.448 280.392 115.448" stroke="#253238" stroke-width="0.7" stroke-miterlimit="10"/>
<path d="M271.698 103.319C271.328 103.823 271.698 115.694 271.698 115.694" stroke="#253238" stroke-width="0.7002" stroke-miterlimit="10"/>
<path d="M251.418 96.7881C251.418 96.7881 252.847 97.8869 254.142 98.6571L253.679 115.447" stroke="#253238" stroke-width="0.7002" stroke-miterlimit="10"/>
<path d="M254.131 98.6569L264.851 85.1631" stroke="#253238" stroke-width="0.7002" stroke-miterlimit="10"/>
<path d="M368.191 155.2V176.786" stroke="#253238" stroke-width="0.7002" stroke-miterlimit="10"/>
<path d="M260.937 76.5469C260.937 76.5469 259.385 83.9613 262.119 84.5569" stroke="#253238" stroke-width="0.7002" stroke-miterlimit="10"/>
<path d="M329.287 190.834C329.287 198.505 323.511 205.622 316.172 205.622C308.833 205.622 302.893 198.454 302.893 188.739" stroke="#253238" stroke-width="0.7002" stroke-miterlimit="10"/>
<path d="M307.856 166.733C309.387 165.685 310.672 166.63 311.268 167.349C311.628 167.78 311.762 167.523 311.762 167.523C312.163 167.051 313.242 165.911 315.256 165.613C318.391 165.151 319.717 166.322 320.252 167.154C320.56 167.636 321.105 167.903 321.66 167.78C322.091 167.688 322.646 167.267 323.51 167.298C329.451 167.523 328.844 173.377 328.844 173.377C328.844 173.377 331.959 173.603 333.11 175.924C334.693 179.117 331.599 182.157 331.599 182.157C331.599 182.157 333.727 183.687 333.089 186.481C332.73 188.052 331.342 191.502 329.276 190.845C328.649 190.65 327.446 180.719 327.446 180.719C321.022 183.79 320.149 179.549 320.149 179.549C316.325 182.845 311.762 178.933 311.762 178.933C311.762 178.933 310.179 180.894 307.846 180.925" stroke="#253238" stroke-width="0.7002" stroke-miterlimit="10"/>
<path d="M301.062 188.75C301.062 188.75 300.61 193.669 303.385 193.443" stroke="#253238" stroke-width="0.7002" stroke-miterlimit="10"/>
<path d="M310.939 197.633C311.114 197.766 315.38 201.001 320.683 197.633" stroke="#253238" stroke-width="0.7002" stroke-miterlimit="10"/>
<path d="M314.538 188.75C314.538 188.75 314.044 193.679 313.818 194.624H316.1" stroke="#253238" stroke-width="0.7002" stroke-miterlimit="10"/>
<path d="M309.584 190.835C310.146 190.835 310.602 190.007 310.602 188.986C310.602 187.965 310.146 187.138 309.584 187.138C309.022 187.138 308.566 187.965 308.566 188.986C308.566 190.007 309.022 190.835 309.584 190.835Z" fill="#253238"/>
<path d="M321.373 190.732C321.935 190.732 322.391 189.905 322.391 188.884C322.391 187.863 321.935 187.035 321.373 187.035C320.811 187.035 320.355 187.863 320.355 188.884C320.355 189.905 320.811 190.732 321.373 190.732Z" fill="#253238"/>
<path d="M307.857 183.554C307.857 183.554 308.896 182.999 310.931 183.718" stroke="#253238" stroke-width="0.7002" stroke-miterlimit="10"/>
<path d="M323.592 185.741C323.592 185.741 322.462 182.835 319.82 183.718" stroke="#253238" stroke-width="0.7002" stroke-miterlimit="10"/>
<path d="M328.66 195.209C328.66 195.209 331.703 197.058 331.61 190.003" stroke="#253238" stroke-width="0.7002" stroke-miterlimit="10"/>
<path d="M309.953 203.743C309.953 203.743 309.953 205.992 308.566 206.475C307.815 206.732 307.096 206.783 307.096 206.783C307.096 206.783 294.135 208.385 292.172 209.833" stroke="#253238" stroke-width="0.7" stroke-miterlimit="10"/>
<path d="M410.927 165.315C412.823 165.315 414.36 163.779 414.36 161.885C414.36 159.991 412.823 158.455 410.927 158.455C409.031 158.455 407.494 159.991 407.494 161.885C407.494 163.779 409.031 165.315 410.927 165.315Z" stroke="#253238" stroke-width="0.7002" stroke-miterlimit="10"/>
<path d="M421.32 165.315C423.216 165.315 424.753 163.779 424.753 161.885C424.753 159.991 423.216 158.455 421.32 158.455C419.424 158.455 417.887 159.991 417.887 161.885C417.887 163.779 419.424 165.315 421.32 165.315Z" stroke="#253238" stroke-width="0.7002" stroke-miterlimit="10"/>
<path d="M414.361 161.392C414.361 161.392 415.821 159.893 417.887 161.392" stroke="#253238" stroke-width="0.7002" stroke-miterlimit="10"/>
<path d="M415.769 162.439C415.769 162.439 415.46 167.687 415.44 167.81C415.419 167.934 416.981 167.81 416.981 167.81" stroke="#253238" stroke-width="0.7002" stroke-miterlimit="10"/>
<path d="M407.495 161.393L404.504 162.142C404.504 171.189 409.736 178.512 416.201 178.512C422.666 178.512 427.764 169.454 427.764 162.307" stroke="#253238" stroke-width="0.7002" stroke-miterlimit="10"/>
<path d="M424.752 161.885L428.205 162.306" stroke="#253238" stroke-width="0.7002" stroke-miterlimit="10"/>
<path d="M424.599 154.327C424.599 154.327 411.309 156.114 408.328 152.581C405.142 148.792 404.844 145.434 404.844 145.434C404.844 145.434 408.174 145.311 409.253 146.451C409.253 146.451 409.305 143.144 410.188 143.955C411.854 145.485 414.156 146.451 414.156 146.451C414.156 146.451 414.084 144.417 414.156 144.458C414.228 144.51 416.787 145.147 418.483 145.752C420.179 146.358 422.656 147.591 422.656 147.591" stroke="#253238" stroke-width="0.7002" stroke-miterlimit="10"/>
<path d="M404.504 162.142C404.504 162.142 404.864 158.712 405.141 157.254C405.799 153.824 408.697 153.013 408.697 153.013" stroke="#253238" stroke-width="0.7002" stroke-miterlimit="10"/>
<path d="M406.261 149.521C406.261 149.521 403.476 152.458 403.075 156.688C402.911 158.445 403.075 161.392 403.075 161.392" stroke="#253238" stroke-width="0.7002" stroke-miterlimit="10"/>
<path d="M427.825 162.553C427.825 162.553 427.476 159.123 427.188 157.665C426.489 154.132 424.598 154.327 424.598 154.327" stroke="#253238" stroke-width="0.7002" stroke-miterlimit="10"/>
<path d="M428.596 153.547C429.665 155.406 429.254 161.814 429.254 161.814" stroke="#253238" stroke-width="0.7002" stroke-miterlimit="10"/>
<path d="M410.115 179.754C410.115 179.754 413.857 188.267 415.871 188.267C417.464 188.267 422.182 180.237 422.182 180.237C422.182 180.237 420.332 178.778 420.681 177.084" stroke="#253238" stroke-width="0.7002" stroke-miterlimit="10"/>
<path d="M391.821 213.304C390.186 202.685 393.331 190.578 394.74 186.717C395.099 185.72 395.819 184.889 396.754 184.396C399.55 182.937 403.486 181.366 410.116 179.754C410.116 179.754 411.565 177.834 411.421 177.084" stroke="#253238" stroke-width="0.7" stroke-miterlimit="10"/>
<path d="M422.182 180.236L425.779 181.274" stroke="#253238" stroke-width="0.7002" stroke-miterlimit="10"/>
<path d="M400.815 196.246C400.773 196.482 400.085 204.657 399.756 208.22" stroke="#253238" stroke-width="0.7002" stroke-miterlimit="10"/>
<path d="M407.299 158.64C407.299 158.64 409.303 155.858 411.996 156.648" stroke="#253238" stroke-width="0.7002" stroke-miterlimit="10"/>
<path d="M420.426 156.555C420.426 156.555 423.838 156.114 425.092 158.63" stroke="#253238" stroke-width="0.7002" stroke-miterlimit="10"/>
<path d="M401.061 86.3749C401.061 86.3749 416.941 79.9257 422.758 94.2103" stroke="#253238" stroke-width="0.7002" stroke-miterlimit="10"/>
<path d="M405.676 113.27C405.676 113.27 409.047 115.653 413.128 112.973" stroke="#253238" stroke-width="0.7002" stroke-miterlimit="10"/>
<path d="M314.526 49.8167L314.311 34.957" stroke="#253238" stroke-width="0.7002" stroke-miterlimit="10"/>
<path d="M322.689 49.703L322.236 32.8203" stroke="#253238" stroke-width="0.7002" stroke-miterlimit="10"/>
<path d="M430.281 153.547C430.281 153.547 430.62 133.994 433.118 126.128C434.722 121.085 440.919 117.892 440.919 117.892" stroke="#253238" stroke-width="0.7002" stroke-miterlimit="10"/>
<path d="M415.82 77.0917C415.82 77.0917 416.868 67.685 415.049 61.2256" stroke="#253238" stroke-width="0.7002" stroke-miterlimit="10"/>
<path d="M407.968 77.0919C407.968 77.0919 408.184 60.3735 407.002 53.5547" stroke="#253238" stroke-width="0.7002" stroke-miterlimit="10"/>
<path d="M354.438 194.193C360.544 196.894 370.4 200.878 373.751 200.211C377.102 199.543 379.641 197.602 379.641 197.602C379.641 197.602 377.256 197.705 376.074 194.183C374.892 190.66 365.344 180.75 354.911 188.914C354.911 188.914 352.547 188.74 352.27 190.496" stroke="#253238" stroke-width="0.7002" stroke-miterlimit="10"/>
<path d="M352.27 205.119C352.27 205.119 352.27 203.64 353.153 201.915C354.377 199.522 355.261 194.645 355.261 194.645" stroke="#253238" stroke-width="0.7002" stroke-miterlimit="10"/>
<path d="M372.918 200.282C372.918 200.282 373.72 205.386 374.634 205.119C376.772 204.493 377.101 198.988 377.101 198.988" stroke="#253238" stroke-width="0.7002" stroke-miterlimit="10"/>
<path d="M358.199 219.312V225.473" stroke="#253238" stroke-width="0.7002" stroke-miterlimit="10"/>
<path d="M369.969 218.264L369.537 224.384" stroke="#253238" stroke-width="0.7002" stroke-miterlimit="10"/>
</svg>
