<?xml version="1.0" encoding="UTF-8"?>
<svg id="Layer_2" data-name="Layer 2" xmlns="http://www.w3.org/2000/svg" viewBox="0 0 254.54 267.14">
  <defs>
    <style>
      .cls-1 {
        fill: #fff;
      }

      .cls-2 {
        fill: #e54f38;
      }
    </style>
  </defs>
  <g id="Layer_1-2" data-name="Layer 1">
    <g>
      <path class="cls-1" d="m136.91,267.14c-25.71,0-49.93-8.03-70.26-23.26-2.09,1.48-4.53,2.41-7.11,2.7-2.71,3.83-6.69,6.17-11.18,6.5-.98.07-2.9.14-10.25.14-9,0-21.2-.11-21.31-.11l-4.41-.04-3.37-2.86c-5.53-4.69-7.86-8.23-8.3-12.61-.06-.62-.17-1.75-.66-36.5l-.06-4.14,20.91-28c-1.08-6.44-1.62-12.97-1.62-19.45,0-29.5,10.97-57.72,30.9-79.45,19.28-21.03,45.43-34.31,73.67-37.44,3.18-1.4,7.64-3.15,12.12-4.22,2.32-2.14,6.38-6.16,9.42-9.17,12.09-11.97,15.5-15.35,19.71-16.58,2.54-1.03,7.44-2.66,13.15-2.66.68,0,1.36.02,2.05.07l3.04.21,2.59,1.62c2.83,1.77,29.41,20.66,40.71,28.69l5.12,3.64v15.87l12.89,25.07v8.86l-.05.54c-.12,1.36-.72,5.71-3.58,10.23,8.85,16.8,13.51,35.67,13.51,54.72s-4.4,36.81-12.75,53.23l2.86,7.36v30.63l-9.64,11.78h-37.22l-.65-.07c-.81-.09-1.62-.25-2.43-.48-17.57,9.93-37.52,15.18-57.81,15.18Z"/>
      <path class="cls-1" d="m136.91,263.49c-25.97,0-50.56-8.65-70.41-24.33-2.01,2.23-4.73,3.58-7.73,3.83-.47.04-.92.07-1.35.1-2.03,3.7-5.33,6.05-9.33,6.35-.86.06-2.72.13-9.98.13-8.99,0-21.15-.11-21.28-.11l-3.09-.03-2.36-2c-5.45-4.62-6.75-7.41-7.03-10.19-.04-.43-.16-1.57-.64-36.19l-.04-2.9,21.11-28.27c-1.22-6.73-1.84-13.57-1.84-20.38,0-28.59,10.63-55.93,29.94-76.98,18.84-20.55,44.34-33.42,71.94-36.34,2.96-1.32,8.02-3.39,12.91-4.44,2.18-1.94,6.76-6.48,10.24-9.93,11.39-11.29,14.93-14.8,18.33-15.71,2.22-.92,6.72-2.47,11.96-2.47.59,0,1.2.02,1.8.06l2.13.15,1.81,1.13c2.93,1.83,34.27,24.12,40.53,28.57l3.59,2.55v14.87l12.89,25.07v7.82l-.03.38c-.24,2.67-1.42,6.74-4.23,10.3,9.28,16.8,14.15,35.65,14.15,54.97s-4.52,36.72-13.1,53.02l3.21,8.26v28.64l-7.71,9.42h-35.29l-.45-.05c-1-.11-2.09-.38-3.19-.85-17.4,10.18-37.12,15.53-57.44,15.53Z"/>
      <path d="m242.35,149.52c0-21.02-6.18-40.6-16.78-57.04,6.3-2.29,6.9-8.99,6.9-8.99v-5.37l-12.89-25.07v-12.53s-37.24-26.5-40.11-28.29c-5.73-.39-10.74,2.15-10.74,2.15-1.71-.4-25.59,25.13-27.57,25.42-5.37.79-12.09,3.81-14.08,4.75-53.62,4.96-95.6,50.05-95.6,104.97,0,7.6.82,15.01,2.35,22.16l-1.53,2.41-20.05,26.86s.48,34.26.6,35.45c.12,1.19,4.06,4.54,4.06,4.54,0,0,27.33.24,30.56,0,3.22-.24,3.58-6.21,3.58-6.21,0,0,2.63.12,7.04-.24,4.42-.36,3.58-8.47,3.58-8.47l-8.59-10.38.77-1.22c19.3,24.68,49.33,40.56,83.08,40.56,21.61,0,41.7-6.51,58.43-17.67.87,2.81,3.11,3.05,3.11,3.05h30.79l3.22-3.94v-23.99l-4.07-10.48c8.86-15.44,13.96-33.32,13.96-52.4Z"/>
      <g>
        <circle class="cls-2" cx="136.91" cy="149.52" r="105.44"/>
        <path d="m12.24,200.94l20.05-26.86,42.97-67.68,51.21-61.57s8.3-4.1,14.68-5.03c1.99-.29,27.57-25.42,27.57-25.42,0,0,5.01-2.54,10.74-2.15,2.86,1.79,40.11,28.29,40.11,28.29v12.53l12.89,25.07v5.37s-1.07,12.17-15.76,9.31c-14.68-2.86-35.45-12.17-35.45-12.17l51.21,131.78v23.99l-3.22,3.94h-30.8s-3.93-.41-3.4-6.65l-.54-1.94,9.67-9.67-50.49-61.23-87.37,33.66-13.25,21.13,8.59,10.38s.84,8.12-3.58,8.47c-4.42.36-7.04.24-7.04.24,0,0-.36,5.97-3.58,6.21-3.22.24-30.56,0-30.56,0,0,0-3.94-3.34-4.06-4.54-.12-1.19-.6-35.45-.6-35.45Z"/>
      </g>
    </g>
  </g>
</svg>