<svg xmlns="http://www.w3.org/2000/svg" viewBox="0 0 512 512"><path fill="#000000" d="M0 0h512v512H0z"/><g transform="scale(0.474) translate(0,0)"><path fill="#000000" opacity="1.000000" d="M1 494V1c164.025 0 328.05 0 492.697.413-.557.8-1.712 1.405-2.92 1.544-12.224 1.411-24.573 2.1-36.66 4.259-16.996 3.037-33.901 6.737-50.663 10.892-31.898 7.905-62.61 19.318-92.296 33.353-30.523 14.43-59.543 31.424-86.884 51.356-19.7 14.361-38.496 29.739-56.057 46.59-10.058 9.65-19.743 19.73-29.073 30.088-9.68 10.746-19.327 21.62-27.907 33.236-10.853 14.693-20.76 30.097-30.813 45.368-15.255 23.173-27.329 48.074-38.136 73.524-11.346 26.717-20.476 54.258-26.881 82.618-3.018 13.36-6.045 26.745-8.246 40.253-1.975 12.129-2.786 24.445-4.243 36.663-.12 1.01-1.255 1.898-1.918 2.843M588 1h493c0 164.025 0 328.05-.413 492.697-.801-.557-1.405-1.712-1.544-2.92-1.411-12.225-2.1-24.573-4.259-36.66-3.037-16.996-6.738-33.902-10.892-50.663-7.905-31.898-19.32-62.61-33.354-92.297-14.43-30.522-31.423-59.542-51.355-86.883-14.361-19.7-29.739-38.496-46.59-56.058-9.651-10.057-19.73-19.742-30.088-29.072-10.746-9.681-21.62-19.327-33.236-27.907-14.694-10.853-30.097-20.76-45.368-30.813-23.173-15.255-48.074-27.33-73.524-38.136-26.717-11.346-54.258-20.476-82.618-26.881-13.36-3.018-26.745-6.045-40.253-8.246-12.129-1.975-24.445-2.786-36.663-4.243-1.01-.12-1.898-1.255-2.843-1.918m-94 1080H1c0-164.025 0-328.05.413-492.697.8.557 1.405 1.712 1.544 2.92 1.411 12.225 2.1 24.573 4.259 36.66 3.037 16.996 6.737 33.902 10.892 50.663 7.905 31.898 19.318 62.61 33.353 92.297 14.43 30.522 31.424 59.542 51.356 86.883 14.361 19.7 29.739 38.496 46.59 56.058 9.65 10.057 19.73 19.742 30.088 29.072 10.746 9.68 21.62 19.327 33.236 27.907 14.693 10.853 30.097 20.76 45.368 30.813 23.173 15.255 48.074 27.329 73.524 38.136 26.717 11.346 54.258 20.476 82.618 26.881 13.36 3.018 26.745 6.045 40.253 8.246 12.129 1.975 24.445 2.786 36.663 4.243 1.01.12 1.898 1.255 2.843 1.918m93 0c.945-.663 1.833-1.797 2.843-1.918 13.218-1.457 25.534-2.268 37.663-4.243 13.508-2.2 26.893-5.228 40.253-8.246 28.36-6.405 55.9-15.535 82.618-26.88 25.45-10.808 50.351-22.882 73.524-38.137 15.27-10.053 30.674-19.96 45.368-30.813 11.616-8.58 22.49-18.226 33.236-27.907 10.357-9.33 20.437-19.015 30.088-29.072 16.851-17.562 32.229-36.358 46.59-56.058 19.932-27.341 36.925-56.361 51.355-86.883 14.035-29.686 25.449-60.399 33.354-92.297 4.154-16.761 7.855-33.667 10.892-50.662 2.16-12.088 2.848-24.436 4.259-36.66.14-1.21.743-2.364 1.544-2.921C1081 752.95 1081 916.975 1081 1081z"/><path fill="#B09155" opacity="1.000000" d="M352.139 711.15c11.686-36.521 23.361-72.628 34.785-108.815 3.432-10.872 10.286-16.774 21.62-18.543 60.036-9.37 120.018-19.094 180.058-28.437 11.07-1.722 21.878-.241 31.725 5.96 8.03 5.056 16.3 9.732 24.45 14.597 11.546 6.89 24.112 9.713 37.474 10.028 6.893.163 13.753 1.416 20.648 1.875 3.346.223 6.737-.249 11.15-.454-1.598-3.026-2.451-4.963-3.578-6.726-15.635-24.456-37.163-41.292-64.579-51.024-21.79-7.735-43.37-16.089-64.891-24.553-35.457-13.944-71.247-27.175-106.059-42.597-39.107-17.325-75.584-39.393-107.625-68.198-17.456-15.692-32.261-33.624-45.71-52.77-18.24-25.97-37.58-51.135-62.252-71.33-13.6-11.132-28.793-20.321-43.282-30.365-1.444-1-2.993-1.85-4.493-2.77l.456-1.41c1.539.384 3.144.6 4.606 1.176 45.824 18.064 91.818 35.714 137.405 54.359 77.952 31.88 155.878 63.846 233.355 96.856 39.793 16.954 78.67 36.074 117.806 54.544 19.468 9.187 32.477 24.452 39.593 44.81 19.226 55.006 49.577 103.054 90.924 144.064 9.327 9.251 19.456 17.705 29.38 26.339 6.313 5.493 7.075 11.29 1.757 17.63-27.725 33.064-55.478 66.104-83.183 99.184-5.08 6.066-9.11 8.239-17.918 3.276-39.561-22.288-81.99-36.614-126.829-43.53-23.982-3.7-48.192-5.393-72.466-4.105-97.05 5.149-179.943 42.504-249.43 110.143-2.08 2.024-4.125 4.082-6.187 6.124l-1.613-.904a457847 457847 0 0 0 42.903-134.435"/></g></svg>
